<?xml version="1.0" encoding="UTF-8" standalone="no"?>
<!DOCTYPE svg PUBLIC "-//W3C//DTD SVG 1.1//EN" "http://www.w3.org/Graphics/SVG/1.1/DTD/svg11.dtd">
<svg version="1.1" xmlns="http://www.w3.org/2000/svg" xmlns:xlink="http://www.w3.org/1999/xlink" preserveAspectRatio="xMidYMid meet" viewBox="0 0 640 640" width="640" height="640"><defs><path d="M256.73 161.47C259.14 161.22 260.71 163.4 261.71 165.3C261.79 165.44 262.02 165.34 261.94 165.2C260.9 163.2 259.23 160.93 256.69 161.22C256.52 161.23 256.56 161.49 256.73 161.47Z" id="a7R6VvZZcD"></path><path d="M256.73 161.47C259.14 161.22 260.71 163.4 261.71 165.3C261.79 165.44 262.02 165.34 261.94 165.2C260.9 163.2 259.23 160.93 256.69 161.22C256.52 161.23 256.56 161.49 256.73 161.47Z" id="b1kIxQNBiL"></path><path d="M640 0L640 165.63L296 165.63L296 0L640 0Z" id="c1hk9uG6HS"></path><path d="M296 160L296 640L0 640L0 160L296 160Z" id="mWAKBluBI"></path><path d="M267.66 119.7C267.12 121.9 266.53 123.58 266.4 124.01C265.81 125.74 265.13 127.45 264.36 129.11C263.78 130.37 263.25 131.34 263.13 131.58C263.14 136.19 262.19 140.74 260.35 144.96C257.02 152.52 251.08 158.64 243.62 162.19C238.95 164.42 233.85 165.59 228.68 165.62C210.92 165.62 68.88 165.62 51.12 165.62C43.22 165.64 35.46 163.56 28.62 159.61C28.61 159.6 28.53 159.55 28.52 159.55C27.06 158.69 25.95 157.92 25.67 157.74C23.59 156.3 21.63 154.69 19.82 152.92C17.37 150.53 15.22 147.85 13.39 144.96C9.12 138.16 6.85 130.3 6.86 122.27C2.53 114.67 0 105.56 0 95.78C0 83.43 4.01 72.17 10.61 63.64C11.99 61.86 13.49 60.19 15.12 58.63C16.72 57.09 18.44 55.68 20.27 54.41C21.73 53.4 23.26 52.48 24.84 51.67C25.5 51.33 26.17 51.01 26.84 50.72C27.43 50.46 28.03 50.21 28.64 49.98C29.73 49.57 30.62 49.3 30.85 49.22C31.96 48.87 32.83 48.67 33.05 48.61C34.65 48.22 35.98 48.04 36.31 47.98C37.22 47.84 38.14 47.75 39.05 47.68C39.78 47.62 40.51 47.59 41.25 47.58C41.29 47.58 41.61 47.58 41.65 47.58C42.46 47.58 43.27 47.62 44.08 47.67C44.16 47.5 44.25 47.33 44.34 47.16C44.66 46.55 44.99 45.94 45.32 45.35C45.32 45.34 45.32 45.34 45.32 45.33C45.38 45.23 45.44 45.13 45.5 45.02C45.77 44.54 46.05 44.06 46.33 43.58C46.47 43.35 46.6 43.13 46.73 42.92C46.76 42.87 46.79 42.81 46.83 42.76C47.03 42.42 47.2 42.15 47.24 42.08C47.95 40.95 48.68 39.84 49.45 38.75C49.56 38.59 49.63 38.49 49.64 38.47C49.76 38.31 49.87 38.14 50 37.97C50.32 37.53 50.64 37.09 50.97 36.65C51.2 36.34 51.43 36.03 51.67 35.74C52.56 34.6 53.32 33.68 53.5 33.45C54.44 32.31 55.26 31.42 55.45 31.2C55.54 31.09 55.63 30.99 55.73 30.89C55.79 30.82 56.12 30.47 56.71 29.83C56.71 29.83 56.71 29.83 56.71 29.83C56.75 29.78 56.79 29.73 56.84 29.68C56.84 29.68 56.84 29.68 56.84 29.68C56.96 29.56 57.07 29.43 57.19 29.31C57.72 28.76 58.26 28.21 58.79 27.67C61.54 24.94 64.47 22.39 67.55 20.04C67.67 19.95 67.8 19.85 67.92 19.76C68.5 19.33 69.09 18.89 69.68 18.47C72.92 16.14 76.31 14.03 79.83 12.14C80.07 12 80.32 11.87 80.57 11.74C83.72 10.07 86.96 8.58 90.28 7.27C92.09 6.55 93.94 5.88 95.8 5.26C97.04 4.86 98.28 4.47 99.54 4.11C102.5 3.26 104.9 2.73 105.49 2.58C111.38 1.26 117.36 0.45 123.38 0.14C126.12 0 128.37 0.01 128.93 0C137.95 -0.01 146.94 1.13 155.68 3.38C155.86 3.66 156.18 3.82 156.51 3.82C156.58 3.82 157.2 3.82 157.28 3.82C157.61 3.91 157.94 4 158.28 4.09C160.14 4.63 161.98 5.22 163.79 5.85C164.06 5.95 164.21 6.01 164.24 6.02C168.71 7.61 173.06 9.52 177.26 11.73C181.04 13.73 184.68 15.97 188.15 18.46C188.95 19.04 189.57 19.51 189.73 19.63C190.68 19.02 191.46 18.58 191.66 18.46C194.18 17.03 196.85 15.89 199.63 15.06C205.44 13.34 211.59 13.1 217.52 14.36C225.12 15.98 232 19.98 237.56 25.67C239.82 28 241.84 30.55 243.57 33.3C243.7 33.5 243.82 33.69 243.94 33.9C245.43 36.33 246.71 38.88 247.77 41.52C247.81 41.62 247.85 41.71 247.88 41.81C248.86 44.29 249.64 46.84 250.24 49.44C250.26 49.57 250.3 49.7 250.32 49.83C250.88 52.34 251.25 54.89 251.45 57.46C251.45 57.55 251.45 57.64 251.47 57.74C251.61 59.73 251.6 61.36 251.61 61.76C251.61 62.98 251.57 64.18 251.5 65.37C251.5 65.5 251.48 65.64 251.47 65.77C251.45 66.12 251.42 66.46 251.39 66.81C253.13 68.21 254.77 69.76 256.27 71.42C257.27 72.51 258.01 73.45 258.21 73.68C260.11 76.06 261.78 78.61 263.19 81.31C267.06 88.61 269.28 97.19 269.28 106.38C269.28 110.87 268.74 115.34 267.66 119.7Z" id="b8ShTvnq4"></path><path d="M228.68 165.63C210.92 165.63 68.88 165.63 51.12 165.63C43.22 165.65 35.46 163.57 28.62 159.61C28.61 159.61 28.53 159.56 28.52 159.56C31.21 158.57 36.08 157.66 42.71 156.83C42.71 156.83 42.71 156.83 42.71 156.83C42.89 156.81 42.99 156.79 43.01 156.79C45.98 156.43 49.3 156.08 52.93 155.76C53.02 155.76 53.12 155.74 53.21 155.73C53.21 155.73 53.21 155.73 53.21 155.73C57.53 155.35 61.48 155.08 62.4 155.01C62.51 155.01 62.61 154.99 62.71 154.99C63.96 154.9 65.24 154.81 66.55 154.73L66.55 154.73C66.85 154.71 67.01 154.7 67.05 154.7C76.55 154.11 87.35 153.64 99.06 153.33C99.06 153.33 99.07 153.33 99.07 153.33C101.53 153.26 103.54 153.22 104.04 153.21C106.84 153.14 109.13 153.1 109.7 153.09C111.15 153.06 112.63 153.04 114.11 153.01C114.11 153.01 114.14 153.01 114.14 153.01C120.82 152.91 127.71 152.86 134.76 152.86C152.2 152.86 168.68 153.18 183.28 153.75C183.28 153.75 183.31 153.75 183.32 153.75C185.56 153.84 187.77 153.93 189.92 154.03C190.1 154.04 191.56 154.11 191.75 154.12C194.17 154.23 196.53 154.36 198.83 154.49C198.83 154.49 198.83 154.49 198.83 154.49C225.88 156.03 243.45 158.53 243.45 161.35C243.45 162.91 238.07 164.37 228.68 165.63Z" id="d10eWFQ2r6"></path><path d="M155.45 152.55C153.06 152.17 151.13 151.93 150.65 151.86C150.65 151.8 150.65 151.73 150.65 151.66C150.66 150.98 150.86 150.31 151.22 149.72C151.69 148.98 152.4 148.51 153.19 148.54C153.98 148.56 154.67 149.07 155.09 149.84C155.41 150.45 155.56 151.13 155.53 151.81C155.52 152.06 155.5 152.3 155.45 152.55Z" id="b2jV0JCN1z"></path><path d="M153.32 144.63C154.67 144.67 155.72 146.14 155.66 147.91C155.61 149.67 154.47 151.07 153.12 151.03C151.77 150.99 150.72 149.52 150.77 147.75C150.83 145.98 151.97 144.58 153.32 144.63Z" id="ai1hKmhkH"></path><path d="M153.44 140.71C154.79 140.76 155.84 142.22 155.79 143.99C155.73 145.76 154.59 147.16 153.24 147.12C151.89 147.07 150.84 145.6 150.9 143.84C150.95 142.07 152.09 140.67 153.44 140.71Z" id="b6fCpCbjgI"></path><path d="M153.57 136.8C154.92 136.84 155.97 138.31 155.91 140.08C155.85 141.85 154.71 143.24 153.36 143.2C152.01 143.16 150.96 141.69 151.02 139.92C151.08 138.15 152.22 136.76 153.57 136.8Z" id="b1mAac6NGL"></path><path d="M153.69 132.88C155.04 132.93 156.09 134.39 156.03 136.16C155.98 137.93 154.84 139.33 153.49 139.29C152.14 139.24 151.09 137.78 151.14 136.01C151.2 134.24 152.34 132.84 153.69 132.88Z" id="b3tQgn6Kc"></path><path d="M144.4 107.63C144.83 107.58 146.98 107.29 150.86 106.78C146.69 106.68 144.37 106.62 143.9 106.61C142.65 103.64 142.68 100.28 143.97 97.32C144.59 97.66 147.64 99.38 153.15 102.45C148.11 98.5 145.31 96.3 144.75 95.86C148.15 90.35 155.37 88.65 160.88 92.05C166.39 95.46 168.09 102.68 164.69 108.19C164.39 108.68 164.05 109.14 163.68 109.58C164.18 110.26 164.61 110.99 164.95 111.76C164.39 112.03 161.56 113.39 156.47 115.83C161.87 114.2 164.87 113.3 165.47 113.12C166.62 116.92 165.77 121.04 163.22 124.08C167.06 129.29 165.95 136.63 160.74 140.47C155.53 144.31 148.19 143.2 144.35 137.99C141.13 133.63 141.32 127.64 144.8 123.49C141.59 119.14 141.78 113.15 145.26 109C144.94 108.57 144.65 108.11 144.4 107.63Z" id="dNUkYeoze"></path><path d="M163.22 124.08C167.06 129.29 165.95 136.63 160.74 140.47C155.53 144.31 148.19 143.2 144.35 137.99C141.13 133.63 141.32 127.64 144.8 123.49C143.3 121.45 166 115.6 165.96 116.91C165.88 119.54 164.92 122.07 163.22 124.08Z" id="bDsQOIlbZ"></path><path d="M120.7 152.55C118.31 152.17 116.38 151.93 115.9 151.86C115.9 151.8 115.9 151.73 115.9 151.66C115.91 150.98 116.11 150.31 116.47 149.72C116.94 148.98 117.65 148.51 118.44 148.54C119.23 148.56 119.91 149.07 120.34 149.84C120.66 150.45 120.81 151.13 120.78 151.81C120.77 152.06 120.75 152.3 120.7 152.55Z" id="k7ZdAps0BL"></path><path d="M118.57 144.63C119.92 144.67 120.97 146.14 120.91 147.91C120.85 149.67 119.71 151.07 118.36 151.03C117.01 150.99 115.96 149.52 116.02 147.75C116.08 145.98 117.22 144.58 118.57 144.63Z" id="d5A7OYDSCk"></path><path d="M118.69 140.71C120.04 140.76 121.09 142.22 121.03 143.99C120.98 145.76 119.84 147.16 118.49 147.12C117.14 147.07 116.09 145.61 116.14 143.84C116.2 142.07 117.34 140.67 118.69 140.71Z" id="bOSzyiWF8"></path><path d="M118.81 136.8C120.16 136.84 121.21 138.31 121.16 140.08C121.1 141.85 119.96 143.24 118.61 143.2C117.26 143.16 116.21 141.69 116.27 139.92C116.32 138.16 117.46 136.76 118.81 136.8Z" id="b2cHkbMa6"></path><path d="M118.94 132.89C120.29 132.93 121.34 134.4 121.28 136.16C121.22 137.93 120.08 139.33 118.73 139.29C117.38 139.25 116.33 137.78 116.39 136.01C116.45 134.24 117.59 132.84 118.94 132.89Z" id="a3HkaUk7Ld"></path><path d="M109.65 107.63C110.08 107.58 112.23 107.29 116.11 106.78C111.94 106.68 109.62 106.62 109.15 106.61C107.9 103.64 107.92 100.28 109.22 97.32C109.84 97.66 112.89 99.38 118.4 102.45C113.36 98.5 110.55 96.3 109.99 95.86C113.4 90.35 120.62 88.65 126.13 92.05C131.64 95.46 133.34 102.68 129.94 108.19C129.64 108.68 129.3 109.14 128.93 109.58C129.43 110.26 129.86 110.99 130.2 111.76C129.64 112.03 126.81 113.39 121.72 115.83C127.12 114.2 130.12 113.3 130.71 113.12C131.87 116.92 131.02 121.04 128.47 124.08C132.31 129.29 131.2 136.63 125.99 140.47C120.78 144.31 113.44 143.2 109.59 137.99C106.38 133.63 106.57 127.64 110.05 123.49C106.84 119.14 107.03 113.15 110.51 109C110.19 108.57 109.9 108.11 109.65 107.63Z" id="gvahMo575"></path><path d="M128.47 124.08C132.31 129.29 131.2 136.63 125.99 140.47C120.78 144.31 113.44 143.2 109.59 137.99C106.38 133.63 106.57 127.64 110.05 123.49C108.55 121.45 131.25 115.6 131.21 116.91C131.13 119.54 130.17 122.07 128.47 124.08Z" id="a4Q7dyX45U"></path><path d="M215.54 155.7C210.94 154.97 207.21 154.52 206.28 154.39C206.28 154.27 206.28 154.14 206.28 154.01C206.31 152.69 206.69 151.4 207.38 150.28C208.3 148.85 209.67 147.95 211.19 147.99C212.7 148.04 214.02 149.03 214.84 150.51C215.46 151.68 215.76 152.99 215.7 154.31C215.69 154.78 215.63 155.25 215.54 155.7Z" id="an4c9pS9e"></path><path d="M211.44 140.47C214.04 140.55 216.06 143.38 215.95 146.79C215.85 150.19 213.65 152.88 211.05 152.8C208.45 152.72 206.43 149.89 206.53 146.49C206.64 143.08 208.84 140.39 211.44 140.47Z" id="fh8wCaFoU"></path><path d="M211.68 132.94C214.28 133.02 216.3 135.85 216.19 139.25C216.08 142.66 213.89 145.35 211.29 145.27C208.69 145.18 206.66 142.36 206.77 138.95C206.88 135.55 209.08 132.85 211.68 132.94Z" id="ikb13Lbih"></path><path d="M211.92 125.4C214.52 125.48 216.54 128.31 216.43 131.72C216.32 135.12 214.13 137.81 211.53 137.73C208.93 137.65 206.9 134.82 207.01 131.42C207.12 128.01 209.32 125.32 211.92 125.4Z" id="d3t22BsvLw"></path><path d="M211.87 117.53C214.48 117.61 216.5 120.43 216.4 123.84C216.3 127.24 214.11 129.94 211.5 129.86C208.9 129.79 206.87 126.96 206.98 123.55C207.08 120.15 209.27 117.45 211.87 117.53Z" id="c2h8IyDm2e"></path><path d="M194.27 69.27C195.1 69.16 199.24 68.61 206.71 67.63C198.67 67.43 194.21 67.33 193.32 67.3C190.9 61.58 190.95 55.11 193.45 49.42C194.63 50.08 200.52 53.37 211.11 59.3C201.41 51.68 196.02 47.45 194.94 46.6C201.52 36.01 215.43 32.76 226.02 39.34C236.61 45.91 239.86 59.83 233.29 70.42C232.72 71.33 232.09 72.2 231.4 73.02C232.36 74.33 233.18 75.73 233.84 77.22C232.76 77.74 227.31 80.35 217.52 85.06C227.9 81.93 233.67 80.19 234.83 79.84C237.04 87.14 235.42 95.07 230.52 100.91C237.92 110.95 235.78 125.08 225.74 132.47C215.71 139.86 201.58 137.72 194.18 127.69C188 119.3 188.37 107.77 195.06 99.79C188.89 91.41 189.25 79.88 195.94 71.9C195.32 71.06 194.77 70.18 194.27 69.27Z" id="b1E8w30Ro8"></path><path d="M230.53 100.92C237.93 110.95 235.79 125.08 225.75 132.47C215.72 139.87 201.59 137.73 194.19 127.69C188.01 119.31 188.38 107.78 195.07 99.8C192.16 95.86 235.87 84.59 235.79 87.12C235.64 92.18 233.79 97.04 230.53 100.92Z" id="a7rHIqoCdm"></path><path d="M38.48 154.71L41.87 154.71L46.14 85.26L88.48 14.61L86.64 12.63L86.64 7.63L40.85 83.62L36.09 154.72L36.09 154.72L38.48 154.71Z" id="d8IJsoolGH"></path><path d="M41.87 154.71L46.14 85.26L88.48 14.61L86.64 12.63L42.97 84.2L38.74 154.71L38.74 154.71L41.87 154.71Z" id="b10bPrkju"></path><path d="M138.72 163.69L138.82 163.7L244.99 157.17L245.07 157.16L245.07 152.68L128.08 150.53L30.48 150.44L29.77 150.44L29.69 150.94L29.02 155.29L29.02 155.29L138.72 163.69Z" id="e1kFBGYIPL"></path><path d="M138.72 163.69L138.82 163.7L244.99 157.17L245.07 157.08L245.07 152.77L244.97 152.77L138.72 156.32L30.48 150.44L30.46 150.44L30.27 150.56L29.69 150.94L29.02 155.29L29.02 155.29L138.72 163.69Z" id="dIIHmgJC8"></path><path d="M138.72 163.69L138.72 156.32L30.27 150.56L29.69 150.94L29.02 155.29L29.02 155.29L138.72 163.69Z" id="b1p207A62p"></path><path d="M134.99 64.45L133.49 155.76L137.6 156.26L137.67 156.27L141.78 156.27L142.27 68.37L232.84 98.62L234.36 152.48L237.67 152.85L238.79 152.98L236.2 94.89L141.52 61.65L89.61 7.68L86.62 7.68L86.62 12.54L86.62 12.54L134.99 64.45Z" id="bF5XjWgQJ"></path><path d="M142.27 68.37L232.84 98.62L234.36 152.48L237.67 152.85L235.08 97.5L141.9 66.69L141.9 66.69L142.27 68.37Z" id="b1f9z0JmKb"></path><path d="M134.99 64.45L133.49 155.76L137.6 156.26L138.72 61.46L86.62 7.68L86.62 12.54L86.62 12.54L134.99 64.45Z" id="d6VbJUvgL"></path><path d="M175.29 109.88L175.3 109.88L233.48 121.34L236.14 120.27L236.13 120.08L235.96 116.37L142.11 97.4L142.07 103.33L142.07 103.33L175.29 109.88Z" id="aMzEmXQDr"></path><path d="M233.48 121.34L236.14 120.27L236.13 120.08L175.3 109.88L175.3 109.88L233.48 121.34Z" id="c4oCoKXoE"></path><path d="M178.43 129.61L178.89 154.98L182.98 154.84L185.55 154.76L184.75 80.86L182.98 80.27L182.59 80.15L177.53 80.15L177.53 80.15L178.43 129.61Z" id="aAeYpYFL6"></path><path d="M177.56 80.15L178.43 129.61L178.89 154.98L182.98 154.84L182.98 80.13L177.56 80.13L177.56 80.13L177.56 80.15Z" id="b26hUhBs4N"></path><path d="M113.46 92.78C113.7 92.91 113.93 93.06 114.15 93.22C114.4 93.45 114.63 93.7 114.83 93.98C115.81 95.24 116.72 96.72 116.62 98.32C116.63 98.79 116.44 99.24 116.11 99.58C115.71 99.92 115.13 99.94 114.6 99.94C114.02 99.94 113.41 99.94 112.92 99.64C112.42 99.34 112 98.76 111.41 98.78C111.33 98.79 111.24 98.79 111.16 98.78C110.96 98.71 110.92 98.44 110.78 98.28C110.55 97.97 110.07 98.05 109.71 98.18C109.35 98.31 108.96 98.51 108.6 98.36C108.4 98.25 108.23 98.08 108.12 97.88C107.27 96.5 107.09 94.86 106.93 93.26C106.83 92.29 106.08 88.99 108.15 89.74C109.07 90.07 109.92 90.73 110.75 91.21C111.3 91.52 112.92 92.46 113.46 92.78Z" id="b1H6oRxKZ"></path><path d="M112.67 93.05C113.01 92.75 113.23 92.33 113.28 91.87C113.51 91.8 113.63 92.1 113.77 92.28C114.03 92.59 114.55 92.59 114.78 92.92C114.95 93.15 114.91 93.47 115.02 93.72C115.17 94.06 115.54 94.23 115.79 94.5C116.03 94.8 116.2 95.14 116.3 95.5C116.33 95.62 116.63 96.52 116.67 96.63C116.85 97.1 116.97 97.59 117.01 98.09C117.06 98.59 116.9 99.09 116.58 99.48C116.08 100.02 115.25 100.08 114.52 100.06C114.28 100.07 114.03 100.04 113.8 99.98C113.15 99.78 112.74 99.12 112.57 98.47C112.4 97.81 112.41 97.12 112.31 96.45C112.2 95.79 112.01 95.15 111.74 94.54C111.54 94.06 110.99 93.35 111 92.85C111.16 92.85 111.28 93 111.42 93.1C111.8 93.38 112.31 93.36 112.67 93.05Z" id="c4Q18yrrPA"></path><path d="M112.05 89.78C112.05 89.1 112.37 88.45 112.68 87.84C112.42 87.88 110.33 88.16 110.07 88.2C109.75 88.24 109.4 88.3 109.22 88.57C109.08 88.83 109.08 89.15 109.22 89.41C109.35 89.67 109.46 89.94 109.53 90.23C109.54 90.47 109.57 90.72 109.62 90.96C109.7 91.14 109.81 91.3 109.95 91.43C110.7 92.26 111.26 93.24 111.82 94.2C111.8 94.18 113.39 92.94 113.33 92.54C113.29 92.31 112.83 92.04 112.69 91.82C112.49 91.5 112.33 91.15 112.24 90.79C112.13 90.46 112.07 90.13 112.05 89.78Z" id="eEwL4kJio"></path><path d="M134.64 84.11L96.08 91.63L94.08 92.84L87.18 92.84L87.18 91.57L125.07 82.42L134.64 81.86L134.64 81.86L134.64 84.11Z" id="b1KK07xeIt"></path><path d="M96.08 91.63L94.08 92.84L87.18 92.84L125.35 84.67L134.64 84.11L134.64 84.11L96.08 91.63Z" id="g3FfibYXew"></path><path d="M100.05 145.01C99.92 145.07 99.8 145.16 99.71 145.27C99.48 145.59 99.63 146.03 99.65 146.43C99.7 147.39 98.94 148.18 98.25 148.85C97.88 149.21 97.5 149.6 97.33 150.09C97.16 150.58 97.29 151.21 97.74 151.46C97.93 151.56 98.14 151.62 98.36 151.64C99.09 151.78 99.84 151.8 100.58 151.7C101.31 151.56 102.02 151.14 102.34 150.47C102.4 150.29 102.5 150.12 102.64 149.99C103.04 149.67 103.65 150.04 104.11 149.81C104.49 149.63 104.51 149.33 104.51 148.94C104.52 147.87 104.36 146.65 103.68 145.78C102.8 144.71 101.29 144.39 100.05 145.01Z" id="a1n3VYpVyJ"></path><path d="M109.53 148.08C109.55 148.54 109.56 149.03 109.31 149.41C109.07 149.8 108.58 150 108.12 150.1C107.17 150.3 106.06 150.11 105.45 149.35C104.98 148.78 104.88 147.98 104.97 147.23C105.04 146.62 105.2 145.9 104.75 145.46C104.64 145.34 104.49 145.26 104.39 145.14C104.16 144.86 104.19 144.44 104.32 144.09C104.48 143.77 104.6 143.42 104.68 143.06C104.7 142.89 107.77 143.18 108.06 143.32C108.44 143.51 108.38 143.83 108.5 144.21C108.66 144.75 108.97 145.23 109.17 145.74C109.45 146.48 109.49 147.29 109.53 148.08Z" id="c192QNebte"></path><path d="M110.66 114.77C110.92 116.73 110.47 118.7 110.44 120.67C110.4 123.44 111.2 126.25 110.52 128.93C110.11 130.53 110.46 132.36 110.07 133.97C109.96 134.45 109.75 134.91 109.64 135.39C109.41 136.43 109.65 137.52 109.97 138.53C110.08 138.81 110.14 139.09 110.17 139.39C110.15 139.84 110.04 140.28 109.83 140.68C109.7 141 108.6 143.6 108.46 143.92C108.31 144.28 107.71 144.34 107.32 144.39C106.59 144.48 105.78 144.54 105.2 144.09C104.62 143.64 104.48 142.88 104.4 142.18C104.22 140.83 104.15 139.47 104.17 138.1C104.19 137.75 104.16 137.39 104.07 137.05C103.95 136.65 103.67 136.32 103.6 135.9C103.5 135.37 103.77 134.84 103.87 134.3C103.94 133.81 103.93 133.31 103.85 132.82C103.76 132.09 103.66 131.35 103.54 130.63C103.38 129.61 103.61 128.61 103.77 127.59C103.92 126.63 103.73 125.65 103.54 124.7C103.56 125.47 103.46 126.24 103.25 126.99C103.13 127.35 102.96 127.7 102.85 128.07C102.39 129.73 103.39 131.48 103.24 133.2C103.18 134 102.86 134.8 102.95 135.59C103.01 136.17 103.28 136.7 103.47 137.26C103.65 137.81 103.75 138.44 103.47 138.96C102.72 140.36 103.28 142.27 103.95 143.71C104.08 143.97 104.2 144.23 104.3 144.51C104.49 145.15 104.33 145.85 104.38 146.53C103.99 146.59 103.6 146.47 103.31 146.21C103.21 146.1 103.13 145.98 103.03 145.87C102.75 145.61 102.43 145.4 102.07 145.27C101.86 145.15 101.63 145.1 101.39 145.11C101.14 145.18 100.91 145.32 100.74 145.52C100.51 145.72 100.27 145.9 100.02 146.06C99.91 146.15 99.78 146.2 99.65 146.23C99.51 146.25 99.38 146.18 99.32 146.06C99.3 146.02 99.29 145.98 99.29 145.94C99.21 145.25 99.16 144.55 99.16 143.86C99.16 142.66 97.72 141.84 97.54 140.66C97.4 139.7 97.67 138.73 97.58 137.77C97.53 137.28 97.4 136.79 97.41 136.3C97.41 135.98 97.48 135.66 97.51 135.35C97.53 134.99 97.52 134.64 97.49 134.29C97.48 134.18 97.43 133.29 97.42 133.18C97.35 132.09 97.27 130.98 96.84 129.98C96.33 128.82 96.03 127.57 95.95 126.31C95.91 125.51 95.94 124.71 95.85 123.9C95.76 123.18 95.58 122.46 95.63 121.73C95.68 121.17 95.86 120.63 95.9 120.06C95.99 118.98 95.58 117.93 95.26 116.89C94.94 115.86 94.7 114.71 95.12 113.71C95.18 113.55 95.28 113.4 95.42 113.29C95.58 113.18 95.76 113.11 95.95 113.09C99.88 112.26 103.9 112.01 107.89 112.32C108.54 112.36 109.18 112.56 109.73 112.9C110.34 113.29 110.57 114.06 110.66 114.77Z" id="a58yvWyWF8"></path><path d="M96.76 81.29C94.73 81.29 93.09 82.93 93.09 84.95C93.09 86.98 94.73 88.62 96.76 88.62C98.78 88.62 100.42 86.98 100.42 84.95C100.42 82.93 98.78 81.29 96.76 81.29Z" id="epQvDzyDh"></path><path d="M96.05 90.17C95.99 90.31 95.91 90.45 95.81 90.57C95.45 91.03 95.06 91.45 94.63 91.84C94.85 92.33 95.24 92.71 95.73 92.93C96.21 93.13 96.72 93.28 97.24 93.36C97.5 93.43 97.77 93.44 98.04 93.41C98.28 93.35 98.51 93.25 98.72 93.1C98.92 92.98 100.55 92.01 100.76 91.88C101.06 91.72 101.35 91.51 101.6 91.27C101.98 90.89 102.19 90.38 102.19 89.84C102.2 89.75 102.18 89.65 102.12 89.57C102.04 89.5 101.94 89.46 101.84 89.46C101.12 89.3 100.56 88.72 100.24 88.06C99.95 87.38 99.76 86.67 99.68 85.94C99.47 86.05 97.73 86.97 97.51 87.08C97.19 87.25 96.87 87.43 96.54 87.57C96.33 87.67 95.9 87.75 95.74 87.94C95.46 88.3 95.97 89.1 96.05 89.53C96.1 89.74 96.1 89.96 96.05 90.17Z" id="a2zS5sfqrn"></path><path d="M93.95 92.13C93.8 92.59 93.95 93.07 94.07 93.52C94.67 95.45 95.13 97.42 95.45 99.42C95.64 100.79 95.71 102.18 95.8 103.57C95.99 106.4 96.27 110.91 96.65 113.72C98.02 113.79 99.35 113.39 100.71 113.24C103.26 112.97 105.87 113.59 108.36 113.01C107.76 110.63 107.16 106.55 106.55 104.17C106.29 103.23 106.1 102.27 106 101.3C105.95 100.61 105.98 99.91 105.99 99.2C106.01 97.83 105.93 96.46 105.86 95.09C105.77 93.49 105.69 91.89 105.31 90.32C105.28 90.12 105.19 89.94 105.04 89.8C104.81 89.63 104.51 89.69 104.24 89.73C103.41 89.83 102.57 89.63 101.87 89.16C101.57 88.96 101.16 88.71 100.88 88.94C100.76 89.07 100.68 89.24 100.65 89.42C100.4 90.08 99.88 90.59 99.22 90.83C98.57 91.07 97.89 91.21 97.2 91.25C96.98 91.3 96.76 91.27 96.57 91.18C96.24 90.98 96.22 90.26 95.81 90.22C95.45 90.18 94.89 90.95 94.65 91.18C94.34 91.43 94.1 91.76 93.95 92.13Z" id="dSexwT12r"></path><path d="M98.23 93.79C97.81 93.12 97.27 92.53 96.65 92.05C96.33 91.84 96.04 91.6 95.79 91.32C95.57 91.06 95.41 90.7 95.08 90.6C94.8 90.54 94.51 90.62 94.31 90.81C94.11 91 93.91 91.2 93.74 91.42C92.77 92.42 91.06 92.56 90.29 93.72C90.09 93.97 89.95 94.26 89.89 94.58C89.66 96.27 90.1 97.98 91.11 99.36C91.3 99.68 91.6 99.92 91.95 100.04C91.9 100.47 91.96 100.9 92.12 101.3C92.54 102.75 93.06 104.16 93.67 105.54C93.53 106.08 93.42 106.63 93.37 107.18C93.21 108.58 93.36 110 93.2 111.4C93.08 112.54 92.75 113.65 92.74 114.8C92.74 114.98 92.75 115.2 92.91 115.29C92.99 115.34 93.09 115.36 93.18 115.35C93.46 115.36 95.71 115.43 95.99 115.44C97.63 115.48 99.27 115.53 100.88 115.23C101.1 115.2 101.3 115.13 101.5 115.04C102.04 114.73 102.22 114.05 102.31 113.44C102.42 112.64 102.47 111.84 102.44 111.04C102.78 112.12 103.19 113.23 104.22 113.7C104.76 113.95 105.38 113.93 105.98 113.91C107.27 113.86 108.55 113.72 109.82 113.52C110.1 113.55 110.35 113.36 110.38 113.08C110.39 113.03 110.39 112.98 110.38 112.93C110.38 112.81 110.39 111.81 110.39 111.68C110.42 109.15 109.79 106.72 109.55 104.2C109.47 103.4 109.48 102.6 109.28 101.82C109.2 101.49 109.08 101.17 109.01 100.84C108.95 100.52 108.91 100.19 108.9 99.87C108.88 99.62 108.74 97.6 108.72 97.35C108.64 96.19 108.52 95.07 108.43 93.9C108.38 92.77 108.21 91.65 107.94 90.55C107.74 89.87 107.32 89.09 106.61 89C106.23 88.96 105.86 89.13 105.49 89.24C104.6 89.53 103.64 89.52 102.75 89.23C102.47 89.12 102.19 89.05 101.89 89C101.59 88.96 101.3 89.09 101.11 89.33C101.02 89.51 100.98 89.71 100.99 89.91C100.88 92.19 100.69 94.54 100.06 96.76C99.21 95.96 98.84 94.78 98.23 93.79Z" id="bQ7yLasHq"></path><path d="M92.88 93.88C92.35 93.6 91.74 93.39 91.15 93.5C90.56 93.6 90.01 94.12 90.03 94.72C90.05 95.09 90.28 95.42 90.35 95.79C90.43 96.2 90.31 96.64 90.44 97.03C90.54 97.3 90.7 97.53 90.9 97.74C91.06 97.93 92.35 99.46 92.52 99.65C93.2 100.45 93.89 101.27 94.77 101.82C95.65 102.37 96.8 102.63 97.77 102.24C98.46 101.92 99.03 101.39 99.41 100.73C99.81 100.09 100.09 99.39 100.47 98.73C101.06 97.67 101.83 96.74 102.76 95.96C102.28 95.83 101.68 95.66 101.38 95.27C101.3 95.15 101.23 95.02 101.17 94.88C101.13 94.8 100.83 94.16 100.8 94.08C100.54 94.06 100.29 94.16 100.11 94.34C99.95 94.52 99.78 94.69 99.6 94.86C99.28 95.1 98.84 95.16 98.55 95.44C98.44 95.56 98.33 95.69 98.24 95.82C97.8 96.41 97.12 96.78 96.38 96.83C95.32 95.72 94.24 94.59 92.88 93.88Z" id="a4fxz5idPS"></path><path d="M103.82 87.23C103.85 86.8 104 86.38 104.26 86.04C104.72 85.52 105.53 85.51 106.22 85.58C106.42 85.6 106.67 85.7 106.66 85.9C106.65 85.98 106.61 86.04 106.56 86.1C105.89 86.96 105.5 88.01 105.43 89.1C105.79 89.35 106.34 88.83 106.69 89.1C106.92 89.29 106.81 89.67 106.68 89.94C106.2 90.9 105.79 91.65 105.69 91.84C105.42 92.39 105.07 92.9 104.64 93.34C104.35 93.62 104.01 93.84 103.72 94.11C103.03 94.76 102.62 95.66 101.91 96.29C101.85 96.36 101.77 96.4 101.68 96.41C101.59 96.4 101.51 96.36 101.44 96.3C101.09 96.01 100.79 95.66 100.58 95.26C100.31 94.76 100.35 94.61 100.77 94.26C101.57 93.63 102.34 92.96 102.84 92.05C103.63 90.6 103.6 88.87 103.82 87.23Z" id="biRMItRi"></path><path d="M95.51 95.96C95.57 95.92 95.62 95.87 95.66 95.81C95.92 95.46 96.14 95.08 96.31 94.68C96.34 94.62 96.36 94.56 96.36 94.5C96.36 94.35 96.23 94.24 96.11 94.16C95.46 93.74 94.76 93.41 94.03 93.17C93.43 92.94 92.8 92.74 92.16 92.8C91.67 92.83 91.22 93.06 90.9 93.44C90.45 94.02 91.21 94.2 91.69 94.41C92.8 94.92 94.01 95.21 95.05 95.85C95.19 95.93 95.36 96.03 95.51 95.96Z" id="b1h0dZhAPk"></path><path d="M94.43 100.02C94.49 99.7 94.41 99.35 94.48 99.03C94.58 98.54 95.05 98.17 95.1 97.67C94.22 97.5 94.34 99.2 94.33 99.73C94.32 99.84 94.35 99.95 94.43 100.02Z" id="b2xYISRI"></path><path d="M134.64 84.11L125.35 84.67L125.07 82.42L134.64 81.86L134.64 81.86L134.64 84.11Z" id="a3Ua4qR6Er"></path><path d="M94.1 83.4C94.32 83.05 94.71 82.87 95.09 82.71C95.55 82.5 96.04 82.36 96.54 82.31C97.05 82.26 97.56 82.45 97.91 82.81C98.06 82.98 98.16 83.19 98.3 83.36C98.65 83.78 99.21 83.97 99.74 83.86C100.05 83.79 100.36 83.56 100.34 83.25C100.31 83.06 100.21 82.89 100.07 82.76C100 82.69 99.48 82.11 99.41 82.04C98.67 81.22 97.85 80.34 96.76 80.14C96 79.99 95.22 80.2 94.49 80.44C94.19 80.54 93.86 80.69 93.78 80.98C93.72 81.19 93.81 81.41 93.76 81.62C93.66 82.04 93.13 82.18 92.89 82.52C92.64 82.87 92.72 83.28 92.64 83.67C92.57 84.05 92.37 84.43 92.34 84.82C92.33 85.06 92.45 85.51 92.72 85.6C92.99 85.68 93.29 85.21 93.46 85.5C94.04 85.02 93.7 84.03 94.1 83.4Z" id="c3nBC9ksg"></path><path d="M98.9 80.14C98.36 79.37 97.61 78.78 96.74 78.42C95.86 78.08 94.86 78.16 94.04 78.64C93.44 79.07 92.98 79.65 92.7 80.34C92.1 81.61 91.89 83.17 92.57 84.4C92.85 84.06 93.32 84.21 93.74 84.09C94.26 83.94 94.7 83.6 95.19 83.38C96.69 82.72 98.52 83.25 100.12 82.92C99.93 81.92 99.51 80.97 98.9 80.14Z" id="afHO29xp"></path><path d="M92.92 82.85C92.87 82.44 92.84 81.96 93.13 81.67C93.16 81.63 93.2 81.61 93.25 81.62C93.29 81.63 93.33 81.66 93.34 81.7C93.51 81.96 93.66 82.25 93.77 82.54C93.43 82.46 93.06 82.6 92.86 82.89" id="b1E6ofyGYV"></path><path d="M98.27 81.69C98.22 81.2 98.19 80.93 98.18 80.88C98.17 80.81 98.18 80.74 98.2 80.67C98.27 80.56 98.42 80.52 98.53 80.58C98.65 80.64 98.74 80.74 98.8 80.85C98.99 81.14 99.15 81.45 99.27 81.78C98.9 81.71 98.53 81.71 98.16 81.79" id="cpnbP70lc"></path><path d="M100.31 116.68L98.74 116.79L90.45 116.79L90.45 114.82L100.31 114.82L100.31 114.82L100.31 116.68Z" id="c1s76cru5"></path><path d="M100.31 116.79L90.45 116.79L64.26 83.97L64.26 82.42L69.75 82.42L100.31 114.82L100.31 114.82L100.31 116.79Z" id="c1vKqh87jc"></path><path d="M100.31 116.79L90.45 116.79L64.26 83.97L64.26 82.42L69.75 82.42L100.31 114.82L100.31 114.82L100.31 116.79Z" id="eOVDPkBAM"></path><path d="M100.31 116.79L90.45 116.79L64.26 83.97L64.26 82.42L90.59 114.82L100.31 114.82L100.31 114.82L100.31 116.79Z" id="d2nME63LK4"></path><path d="M67.14 148.51C67.12 148.51 67.11 148.51 67.09 148.51C66.46 148.73 65.78 148.94 65.33 149.43C64.88 149.91 64.79 150.82 65.33 151.21C65.61 151.38 65.92 151.47 66.25 151.46C67.28 151.53 68.36 151.52 69.3 151.08C69.97 150.77 70.61 150.24 71.34 150.29C71.73 150.31 72.13 150.49 72.47 150.31C72.81 150.14 72.91 149.66 72.91 149.25C72.92 148.41 72.79 147.57 72.53 146.76C72.5 146.65 71.05 146.57 70.87 146.53C70.7 146.51 69.29 146.33 69.11 146.3C68.78 146.26 68.06 146.01 67.79 146.29C67.53 146.57 67.69 147.37 67.69 147.71C67.76 148.08 67.51 148.44 67.14 148.51Z" id="i1bn4OPmwF"></path><path d="M78.57 143.2C78.82 143.82 79.13 144.48 79.73 144.78C80.27 145.05 80.94 144.96 81.49 144.7C81.72 144.6 81.93 144.45 82.08 144.25C82.26 143.94 82.34 143.58 82.31 143.22C82.31 142.34 82.26 141.43 81.85 140.64C81.5 139.95 80.9 139.36 80.89 138.6C80.68 138.64 79.01 138.97 78.81 139.01C78.69 139.02 78.59 139.06 78.5 139.13C78.43 139.2 78.39 139.28 78.37 139.38C78.14 140.23 78.09 141.12 78.21 142C78.28 142.41 78.41 142.81 78.57 143.2Z" id="b3RiU85WzY"></path><path d="M53.67 122.44C54.06 123.08 54.86 123.5 55.56 123.24C55.64 123.22 55.7 123.18 55.74 123.11C55.75 123.04 55.74 122.95 55.71 122.88C55.4 122.06 55.42 121.15 55.78 120.34C55.82 120.24 55.92 120.11 56.03 120.15C56.07 120.18 56.11 120.21 56.13 120.26C56.24 120.45 56.3 120.67 56.29 120.89C56.26 121.09 56.25 121.29 56.27 121.5C56.32 121.69 56.53 121.88 56.71 121.79C56.82 121.73 56.89 121.62 56.92 121.5C57.43 120.02 57.2 118.41 56.96 116.87C56.97 116.74 56.87 116.62 56.73 116.61C56.72 116.61 56.71 116.61 56.69 116.62C55.61 116.51 55.02 116.25 54.41 117.25C53.87 118.1 53.34 119.26 53.34 120.28C53.25 121.02 53.29 121.81 53.67 122.44Z" id="bS5d3Fly"></path><path d="M65.29 120.57C65.3 121.42 65.36 122.27 65.48 123.12C65.51 123.32 65.7 124.9 65.72 125.1C65.8 125.77 65.88 126.43 66 127.09C66.08 127.43 66.12 127.78 66.12 128.13C66.1 128.47 66.05 128.81 65.96 129.14C65.82 129.84 65.74 130.56 65.72 131.27C65.69 132.41 65.84 133.56 65.93 134.7C66.1 136.98 66.08 139.27 65.85 141.54C65.75 142.15 65.89 142.78 66.22 143.3C66.36 143.47 66.47 143.65 66.55 143.85C66.72 144.37 66.32 144.89 66.22 145.43C66.08 146.3 66.68 147.12 67.55 147.26C69.38 147.48 71.26 147.38 72.91 148.22C73.08 147.71 72.7 147.13 72.88 146.62C72.99 146.3 73.29 146.09 73.49 145.82C73.77 145.41 73.91 144.92 73.89 144.42C73.89 143.78 73.78 143.14 73.55 142.53C73.35 142.03 73.07 141.53 73.09 140.99C73.09 140.73 73.18 140.45 73.08 140.2C73 140.06 72.9 139.94 72.78 139.84C72.1 139.09 71.68 138.14 71.59 137.13C71.5 136.13 71.53 135.12 71.68 134.12C71.79 133.18 71.95 132.18 72.55 131.44C72.27 129.2 72.43 126.93 73.03 124.75C73.09 124.55 73.18 124.32 73.39 124.27C73.55 124.25 73.72 124.32 73.83 124.44C74.19 124.78 74.36 125.27 74.51 125.73C74.68 126.24 74.86 126.78 74.73 127.29C74.67 127.52 74.56 127.72 74.5 127.94C74.36 128.38 74.38 128.86 74.57 129.29C74.66 129.44 74.71 129.61 74.73 129.79C74.71 129.94 74.66 130.09 74.59 130.23C74.42 130.78 74.49 131.37 74.78 131.86C75.08 132.35 75.44 132.79 75.85 133.17C75.65 134.05 75.7 134.97 76 135.82C76.04 135.89 76.05 135.99 76.03 136.07C75.99 136.16 75.88 136.19 75.8 136.25C75.57 136.44 75.72 136.79 75.87 137.04C76.29 137.71 76.75 138.35 77.26 138.96C77.71 139.51 77.67 140.56 78.35 140.76C78.64 140.82 78.94 140.82 79.22 140.76C79.89 140.66 80.64 140.46 80.97 139.87C81.11 139.62 81.16 139.33 81.37 139.14C81.58 138.96 81.86 138.93 81.97 138.71C82.09 138.49 81.96 138.2 82 137.95C82.04 137.69 82.26 137.49 82.33 137.22C82.5 136.61 81.78 136.1 81.68 135.47C81.54 134.55 82.69 133.87 82.64 132.95C82.54 130.97 82.48 128.97 82.37 126.98C82.25 125.2 82.23 123.42 82.32 121.64C82.4 120.53 82.55 119.37 82.14 118.33C81.56 116.88 79.94 116.06 78.38 115.91C76.82 115.75 75.26 116.12 73.71 116.37C71.15 116.76 68.54 116.82 65.95 116.53C65.63 117.86 65.31 119.21 65.29 120.57Z" id="m2IC6nqS51"></path><path d="M70.59 87.35C68.57 87.35 66.93 88.99 66.93 91.01C66.93 93.04 68.57 94.68 70.59 94.68C72.62 94.68 74.26 93.04 74.26 91.01C74.26 88.99 72.62 87.35 70.59 87.35Z" id="b2TFYqClW"></path><path d="M67.61 96.3C67.48 96.85 67.8 97.41 68.16 97.84C69.7 99.63 72.08 100.45 74.39 99.98C74.83 99.9 75.25 99.72 75.62 99.46C76.11 99.05 76.45 98.48 76.56 97.84C76.66 97.21 76.69 96.57 76.65 95.93C76.66 95.81 76.62 95.68 76.54 95.58C76.45 95.51 76.34 95.47 76.22 95.47C75.45 95.41 74.65 95.38 73.97 95C73.29 94.62 72.8 93.76 73.13 93.06C73.08 93.17 71.74 93.22 71.57 93.24C71.02 93.32 70.47 93.41 69.92 93.51C69.65 93.52 69.39 93.57 69.14 93.65C68.81 93.82 68.93 93.74 69.01 94.05C69.13 94.53 69.3 94.87 69.1 95.36C68.85 95.95 68.26 96.33 67.61 96.3Z" id="a3P0GnfewV"></path><path d="M70.42 97.43C69.94 97.31 69.51 97.03 69.22 96.62C69.05 96.37 68.94 96.04 68.67 95.9C68.23 95.67 67.73 96.06 67.38 96.41C67.06 96.76 66.69 97.06 66.28 97.3C65.79 97.56 65.21 97.65 64.75 97.95C64.39 98.23 64.08 98.56 63.84 98.94C63.51 99.38 60.92 102.91 60.6 103.35C59.3 105.13 58.17 107.03 57.01 108.9C56 110.53 55.48 112.39 54.72 114.14C54.66 114.25 54.64 114.37 54.65 114.49C54.68 114.61 54.82 114.71 54.92 114.64C54.58 114.98 54.88 115.55 54.8 116.03C54.71 116.36 54.52 116.66 54.26 116.88C54.76 116.82 55.27 116.84 55.77 116.95C56.28 117.1 56.76 117.33 57.19 117.64C57.47 117.59 57.44 117.1 57.65 116.92C57.77 116.81 57.96 116.83 58.12 116.79C58.73 116.68 58.97 115.94 59.44 115.53C59.83 115.18 60.38 115.07 60.8 114.75C61.47 114.22 61.61 113.28 61.97 112.5C62.27 111.84 62.74 111.26 63 110.58C63.17 110.15 63.25 109.67 63.5 109.27C63.89 108.61 64.62 108.26 65.33 107.95C65.77 107.75 66.24 107.55 66.72 107.58C66.69 108.64 66.56 109.69 66.79 110.73C66.87 111.09 66.98 111.45 67.08 111.81C67.51 113.45 67.62 115.15 67.64 116.84C68.69 116.6 69.76 116.47 70.84 116.46C71.69 116.43 72.53 116.54 73.38 116.53C74.39 116.51 75.38 116.31 76.39 116.25C77.39 116.18 78.44 116.25 79.33 116.7C79.26 115.25 79.3 113.8 79.46 112.36C79.48 112.13 79.67 110.31 79.7 110.09C79.75 109.43 79.85 108.77 80 108.12C80.13 107.6 80.33 107.1 80.47 106.58C80.99 104.75 80.89 102.8 80.8 100.9C80.74 99.92 80.37 98.95 79.92 98.08C79.76 97.76 79.58 97.45 79.38 97.15C78.29 95.65 76.5 94.81 74.65 94.93C74.54 94.94 74.42 94.96 74.31 95.01C74.12 95.13 73.97 95.31 73.88 95.52C73.41 96.37 72.72 97.08 71.89 97.59C71.4 97.59 70.9 97.54 70.42 97.43Z" id="b1qB7Idzhz"></path><path d="M67.92 91.73C68.25 91.38 68.1 90.83 68.15 90.36C68.23 89.67 68.8 89.1 69.45 88.86C70.12 88.64 70.82 88.6 71.51 88.73C71.84 88.75 72.16 88.86 72.44 89.03C72.56 89.12 72.67 89.23 72.78 89.31C73.2 89.57 73.76 89.44 74.02 89.02C73.21 88.05 72.32 87.02 71.09 86.72C70.67 86.63 70.24 86.59 69.81 86.6C69.24 86.59 68.65 86.58 68.12 86.8C67.41 87.09 66.9 87.77 66.65 88.5C66.42 89.24 66.3 90.01 66.29 90.79C66.24 91.31 66.24 91.83 66.29 92.34C66.38 93.05 66.64 93.72 67.05 94.3C67.11 94.39 67.19 94.47 67.28 94.51C68.32 94.97 67.29 92.42 67.37 92.23C67.48 92 67.75 91.92 67.92 91.73Z" id="bmJ161ENV"></path><path d="M72.19 85.78C71.54 85.16 70.75 84.68 69.9 84.39C69.03 84.14 68.04 84.19 67.3 84.71C66.71 85.12 66.33 85.78 66.04 86.44C65.66 87.23 65.47 88.09 65.49 88.96C65.55 89.82 65.97 90.7 66.72 91.14C66.99 90.74 67.46 90.53 67.91 90.37C69.87 89.63 71.87 88.99 73.9 88.46C73.78 87.38 73.01 86.49 72.19 85.78Z" id="c2in6gUNzc"></path><path d="M67.13 88.15C67.31 88.44 67.47 88.74 67.61 89.06C67.34 89.12 66.88 89.18 66.75 88.95C66.68 88.83 66.76 88 66.97 88.01C67.04 88.01 67.09 88.09 67.13 88.15Z" id="b2hPhIS7KL"></path><path d="M72.18 87.49C72.13 87.55 72.06 87.44 72.06 87.36C72.06 87.27 72.06 86.56 72.06 86.47C72.06 86.45 72.07 86.42 72.08 86.4C72.1 86.38 72.12 86.37 72.15 86.37C72.34 86.35 72.49 86.5 72.61 86.65C72.79 86.9 72.95 87.16 73.08 87.43C73.01 87.43 72.69 87.42 72.11 87.4" id="a1XU73oGeX"></path><path d="M84.25 102.18C84.46 101.98 84.68 101.8 84.92 101.63C85.55 101.21 86.32 101.04 87.03 100.77C87.74 100.5 88.47 100.07 88.74 99.36C88.88 98.91 88.93 98.45 88.87 97.99C88.88 97.79 88.85 97.6 88.77 97.42C88.69 97.26 88.56 97.13 88.41 97.03C87.45 96.31 86.15 96.26 84.96 96.33C82.31 96.49 79.73 97.14 77.32 98.24C77.19 98.28 77.08 98.36 77 98.47C76.95 98.56 76.93 98.67 76.94 98.78C76.89 99.46 76.98 100.13 77.19 100.77C77.51 101.59 78.16 102.24 78.43 103.07C78.55 103.45 78.6 103.84 78.7 104.22C78.79 104.6 79.02 104.95 79.35 105.17C80.25 105.71 81.1 104.99 81.73 104.43C82.23 103.98 83.75 102.63 84.25 102.18Z" id="ahwVGxh9"></path><path d="M71.26 102.82C71.09 102.47 70.95 102.11 70.82 101.74C70.69 101.3 70.63 100.84 70.5 100.4C70.1 98.92 69.07 97.69 68.57 96.24C68.54 96.11 68.47 95.99 68.38 95.89C68.24 95.79 68.05 95.76 67.87 95.8C67.17 95.92 66.63 96.46 65.99 96.76C65.69 96.89 65.37 96.99 65.07 97.14C64.77 97.29 64.55 97.55 64.46 97.87C64.39 98.22 64.56 98.56 64.71 98.9C65.33 100.3 65.47 101.87 65.5 103.41C65.52 104.44 65.47 105.55 64.86 106.38C63.68 107.98 64.43 110.33 64.87 112.27C64.93 112.5 64.99 112.74 65.02 112.99C65.06 113.29 65.08 113.59 65.08 113.9C65.08 114.93 65.02 115.98 64.59 116.92C65.01 117.14 65.48 117.27 65.96 117.3C67.95 117.56 69.56 117.62 69.96 117.66C70.38 117.7 70.8 117.68 71.22 117.6C72.22 117.32 72.92 116.4 72.91 115.36C72.98 115.99 73.11 116.68 73.57 117.12C74.03 117.56 74.7 117.62 75.33 117.66C77.09 117.75 78.85 117.7 80.61 117.51C80.72 117.5 80.83 117.48 80.93 117.43C81.27 117.26 81.29 116.8 81.26 116.42C81.21 115.72 81.16 115.02 81.07 114.32C81 113.88 80.97 113.43 80.96 112.98C81 112.51 81.08 112.05 81.19 111.6C81.5 110.18 81.74 108.72 81.64 107.26C81.6 106.9 81.58 106.55 81.6 106.19C81.65 105.38 82.08 104.61 82 103.81C81.77 101.45 81.59 99.03 80.93 96.75C80.81 96.35 80.66 95.91 80.3 95.68C79.85 95.37 79.2 95.53 78.68 95.34C78.43 95.22 78.2 95.08 77.98 94.92C77.51 94.63 76.97 94.46 76.41 94.44C75.99 94.42 75.52 94.51 75.26 94.85C75.15 95.04 75.07 95.26 75.04 95.48C74.7 96.87 74.32 98.25 73.93 99.63C73.9 99.72 73.78 100.16 73.55 100.95C72.96 103.08 72.62 104.26 72.56 104.5C72.46 104.88 72.52 104.99 72.42 105.35C72.19 104.84 71.38 103.07 71.26 102.82Z" id="e2Ew4SifBr"></path><path d="M78.27 91.51L100.38 114.75L100.38 116.72L90.52 116.72L73.9 95.03" id="b3rw6hE08n"></path><path d="M78.27 91.51L100.38 114.75L100.38 116.72L90.52 116.72L73.9 95.03" id="d5hwRllEi4"></path><path d="M74.33 94.75L90.66 114.75L100.38 114.75L100.38 116.72L90.52 116.72L73.9 95.03L74.26 94.72L74.26 94.72L74.33 94.75Z" id="aPyKMrik4"></path><path d="M74.87 96.85C74.82 97 74.81 97.15 74.84 97.31C74.96 97.67 75.3 97.93 75.68 97.95C76.06 97.96 76.43 97.89 76.78 97.75C77.25 97.59 81.03 96.34 81.5 96.19C81.63 96.15 81.78 96.09 81.81 95.96C81.82 95.88 81.8 95.8 81.76 95.73C81.62 95.37 81.47 94.65 81.17 94.4C80.91 94.19 80.42 94.27 80.11 94.27C78.94 94.28 77.84 94.75 76.8 95.21C76 95.56 75.11 96.01 74.87 96.85Z" id="b6PmDUos7h"></path><path d="M81.01 96.37C81.81 96.37 82.6 96.49 83.35 96.74C84.11 96.98 84.79 97.44 85.29 98.06C85.44 98.24 85.55 98.44 85.6 98.66C85.65 98.89 86.39 99.03 86.23 99.18C86.73 99.1 86.61 99.34 87.12 99.33C87.62 99.33 88.17 99.2 88.48 98.79C88.69 98.46 88.78 98.07 88.74 97.68C88.75 97.41 88.7 97.14 88.59 96.89C88.36 96.41 87.84 96.15 87.35 95.93C86.95 95.74 83.68 94.24 83.27 94.06C83.03 93.93 82.78 93.84 82.52 93.79C82.29 93.77 82.07 93.77 81.85 93.81C81.67 93.83 80.19 94 80 94.02C80.82 94.55 81.31 95.48 81.27 96.46" id="bbu9Z6OSZ"></path></defs><g><g><g><use xlink:href="#a7R6VvZZcD" opacity="1" fill="#3f3d56" fill-opacity="1"></use><g><use xlink:href="#a7R6VvZZcD" opacity="1" fill-opacity="0" stroke="#000000" stroke-width="1" stroke-opacity="0"></use></g></g><g><use xlink:href="#b1kIxQNBiL" opacity="1" fill="#000000" fill-opacity="0"></use><g><use xlink:href="#b1kIxQNBiL" opacity="1" fill-opacity="0" stroke="#000000" stroke-width="1" stroke-opacity="0"></use></g></g><g><use xlink:href="#c1hk9uG6HS" opacity="0" fill="#5b8558" fill-opacity="1"></use><g><use xlink:href="#c1hk9uG6HS" opacity="0" fill-opacity="0" stroke="#000000" stroke-width="1" stroke-opacity="0"></use></g></g><g><use xlink:href="#mWAKBluBI" opacity="0" fill="#83e7af" fill-opacity="1"></use><g><use xlink:href="#mWAKBluBI" opacity="0" fill-opacity="0" stroke="#000000" stroke-width="1" stroke-opacity="0"></use></g></g><g><use xlink:href="#b8ShTvnq4" opacity="0.44" fill="#6c63ff" fill-opacity="1"></use><g><use xlink:href="#b8ShTvnq4" opacity="0.44" fill-opacity="0" stroke="#000000" stroke-width="1" stroke-opacity="0"></use></g></g><g><use xlink:href="#d10eWFQ2r6" opacity="1" fill="#6c63ff" fill-opacity="1"></use><g><use xlink:href="#d10eWFQ2r6" opacity="1" fill-opacity="0" stroke="#000000" stroke-width="1" stroke-opacity="0"></use></g></g><g><use xlink:href="#b2jV0JCN1z" opacity="1" fill="#3f3d56" fill-opacity="1"></use><g><use xlink:href="#b2jV0JCN1z" opacity="1" fill-opacity="0" stroke="#000000" stroke-width="1" stroke-opacity="0"></use></g></g><g><use xlink:href="#ai1hKmhkH" opacity="1" fill="#3f3d56" fill-opacity="1"></use><g><use xlink:href="#ai1hKmhkH" opacity="1" fill-opacity="0" stroke="#000000" stroke-width="1" stroke-opacity="0"></use></g></g><g><use xlink:href="#b6fCpCbjgI" opacity="1" fill="#3f3d56" fill-opacity="1"></use><g><use xlink:href="#b6fCpCbjgI" opacity="1" fill-opacity="0" stroke="#000000" stroke-width="1" stroke-opacity="0"></use></g></g><g><use xlink:href="#b1mAac6NGL" opacity="1" fill="#3f3d56" fill-opacity="1"></use><g><use xlink:href="#b1mAac6NGL" opacity="1" fill-opacity="0" stroke="#000000" stroke-width="1" stroke-opacity="0"></use></g></g><g><use xlink:href="#b3tQgn6Kc" opacity="1" fill="#3f3d56" fill-opacity="1"></use><g><use xlink:href="#b3tQgn6Kc" opacity="1" fill-opacity="0" stroke="#000000" stroke-width="1" stroke-opacity="0"></use></g></g><g><use xlink:href="#dNUkYeoze" opacity="1" fill="#6c63ff" fill-opacity="1"></use><g><use xlink:href="#dNUkYeoze" opacity="1" fill-opacity="0" stroke="#000000" stroke-width="1" stroke-opacity="0"></use></g></g><g><use xlink:href="#bDsQOIlbZ" opacity="1" fill="#000000" fill-opacity="1"></use><g><use xlink:href="#bDsQOIlbZ" opacity="1" fill-opacity="0" stroke="#000000" stroke-width="1" stroke-opacity="0"></use></g></g><g><use xlink:href="#k7ZdAps0BL" opacity="1" fill="#3f3d56" fill-opacity="1"></use><g><use xlink:href="#k7ZdAps0BL" opacity="1" fill-opacity="0" stroke="#000000" stroke-width="1" stroke-opacity="0"></use></g></g><g><use xlink:href="#d5A7OYDSCk" opacity="1" fill="#3f3d56" fill-opacity="1"></use><g><use xlink:href="#d5A7OYDSCk" opacity="1" fill-opacity="0" stroke="#000000" stroke-width="1" stroke-opacity="0"></use></g></g><g><use xlink:href="#bOSzyiWF8" opacity="1" fill="#3f3d56" fill-opacity="1"></use><g><use xlink:href="#bOSzyiWF8" opacity="1" fill-opacity="0" stroke="#000000" stroke-width="1" stroke-opacity="0"></use></g></g><g><use xlink:href="#b2cHkbMa6" opacity="1" fill="#3f3d56" fill-opacity="1"></use><g><use xlink:href="#b2cHkbMa6" opacity="1" fill-opacity="0" stroke="#000000" stroke-width="1" stroke-opacity="0"></use></g></g><g><use xlink:href="#a3HkaUk7Ld" opacity="1" fill="#3f3d56" fill-opacity="1"></use><g><use xlink:href="#a3HkaUk7Ld" opacity="1" fill-opacity="0" stroke="#000000" stroke-width="1" stroke-opacity="0"></use></g></g><g><use xlink:href="#gvahMo575" opacity="1" fill="#6c63ff" fill-opacity="1"></use><g><use xlink:href="#gvahMo575" opacity="1" fill-opacity="0" stroke="#000000" stroke-width="1" stroke-opacity="0"></use></g></g><g><use xlink:href="#a4Q7dyX45U" opacity="1" fill="#000000" fill-opacity="1"></use><g><use xlink:href="#a4Q7dyX45U" opacity="1" fill-opacity="0" stroke="#000000" stroke-width="1" stroke-opacity="0"></use></g></g><g><use xlink:href="#an4c9pS9e" opacity="1" fill="#3f3d56" fill-opacity="1"></use><g><use xlink:href="#an4c9pS9e" opacity="1" fill-opacity="0" stroke="#000000" stroke-width="1" stroke-opacity="0"></use></g></g><g><use xlink:href="#fh8wCaFoU" opacity="1" fill="#3f3d56" fill-opacity="1"></use><g><use xlink:href="#fh8wCaFoU" opacity="1" fill-opacity="0" stroke="#000000" stroke-width="1" stroke-opacity="0"></use></g></g><g><use xlink:href="#ikb13Lbih" opacity="1" fill="#3f3d56" fill-opacity="1"></use><g><use xlink:href="#ikb13Lbih" opacity="1" fill-opacity="0" stroke="#000000" stroke-width="1" stroke-opacity="0"></use></g></g><g><use xlink:href="#d3t22BsvLw" opacity="1" fill="#3f3d56" fill-opacity="1"></use><g><use xlink:href="#d3t22BsvLw" opacity="1" fill-opacity="0" stroke="#000000" stroke-width="1" stroke-opacity="0"></use></g></g><g><use xlink:href="#c2h8IyDm2e" opacity="1" fill="#3f3d56" fill-opacity="1"></use><g><use xlink:href="#c2h8IyDm2e" opacity="1" fill-opacity="0" stroke="#000000" stroke-width="1" stroke-opacity="0"></use></g></g><g><use xlink:href="#b1E8w30Ro8" opacity="1" fill="#6c63ff" fill-opacity="1"></use><g><use xlink:href="#b1E8w30Ro8" opacity="1" fill-opacity="0" stroke="#000000" stroke-width="1" stroke-opacity="0"></use></g></g><g><use xlink:href="#a7rHIqoCdm" opacity="1" fill="#000000" fill-opacity="1"></use><g><use xlink:href="#a7rHIqoCdm" opacity="1" fill-opacity="0" stroke="#000000" stroke-width="1" stroke-opacity="0"></use></g></g><g><use xlink:href="#d8IJsoolGH" opacity="1" fill="#f1c0c0" fill-opacity="1"></use><g><use xlink:href="#d8IJsoolGH" opacity="1" fill-opacity="0" stroke="#000000" stroke-width="1" stroke-opacity="0"></use></g></g><g><use xlink:href="#b10bPrkju" opacity="1" fill="#000000" fill-opacity="1"></use><g><use xlink:href="#b10bPrkju" opacity="1" fill-opacity="0" stroke="#000000" stroke-width="1" stroke-opacity="0"></use></g></g><g><use xlink:href="#e1kFBGYIPL" opacity="1" fill="#f1c0c0" fill-opacity="1"></use><g><use xlink:href="#e1kFBGYIPL" opacity="1" fill-opacity="0" stroke="#000000" stroke-width="1" stroke-opacity="0"></use></g></g><g><use xlink:href="#dIIHmgJC8" opacity="1" fill="#000000" fill-opacity="1"></use><g><use xlink:href="#dIIHmgJC8" opacity="1" fill-opacity="0" stroke="#000000" stroke-width="1" stroke-opacity="0"></use></g></g><g><use xlink:href="#b1p207A62p" opacity="1" fill="#000000" fill-opacity="1"></use><g><use xlink:href="#b1p207A62p" opacity="1" fill-opacity="0" stroke="#000000" stroke-width="1" stroke-opacity="0"></use></g></g><g><use xlink:href="#bF5XjWgQJ" opacity="1" fill="#f1c0c0" fill-opacity="1"></use><g><use xlink:href="#bF5XjWgQJ" opacity="1" fill-opacity="0" stroke="#000000" stroke-width="1" stroke-opacity="0"></use></g></g><g><use xlink:href="#b1f9z0JmKb" opacity="1" fill="#000000" fill-opacity="1"></use><g><use xlink:href="#b1f9z0JmKb" opacity="1" fill-opacity="0" stroke="#000000" stroke-width="1" stroke-opacity="0"></use></g></g><g><use xlink:href="#d6VbJUvgL" opacity="1" fill="#000000" fill-opacity="1"></use><g><use xlink:href="#d6VbJUvgL" opacity="1" fill-opacity="0" stroke="#000000" stroke-width="1" stroke-opacity="0"></use></g></g><g><use xlink:href="#aMzEmXQDr" opacity="1" fill="#f1c0c0" fill-opacity="1"></use><g><use xlink:href="#aMzEmXQDr" opacity="1" fill-opacity="0" stroke="#000000" stroke-width="1" stroke-opacity="0"></use></g></g><g><use xlink:href="#c4oCoKXoE" opacity="1" fill="#000000" fill-opacity="1"></use><g><use xlink:href="#c4oCoKXoE" opacity="1" fill-opacity="0" stroke="#000000" stroke-width="1" stroke-opacity="0"></use></g></g><g><use xlink:href="#aAeYpYFL6" opacity="1" fill="#f1c0c0" fill-opacity="1"></use><g><use xlink:href="#aAeYpYFL6" opacity="1" fill-opacity="0" stroke="#000000" stroke-width="1" stroke-opacity="0"></use></g></g><g><use xlink:href="#b26hUhBs4N" opacity="1" fill="#000000" fill-opacity="1"></use><g><use xlink:href="#b26hUhBs4N" opacity="1" fill-opacity="0" stroke="#000000" stroke-width="1" stroke-opacity="0"></use></g></g><g><use xlink:href="#b1H6oRxKZ" opacity="1" fill="#3f3d56" fill-opacity="1"></use><g><use xlink:href="#b1H6oRxKZ" opacity="1" fill-opacity="0" stroke="#000000" stroke-width="1" stroke-opacity="0"></use></g></g><g><use xlink:href="#c4Q18yrrPA" opacity="1" fill="#3f3d56" fill-opacity="1"></use><g><use xlink:href="#c4Q18yrrPA" opacity="1" fill-opacity="0" stroke="#000000" stroke-width="1" stroke-opacity="0"></use></g></g><g><use xlink:href="#eEwL4kJio" opacity="1" fill="#be6f72" fill-opacity="1"></use><g><use xlink:href="#eEwL4kJio" opacity="1" fill-opacity="0" stroke="#000000" stroke-width="1" stroke-opacity="0"></use></g></g><g><use xlink:href="#b1KK07xeIt" opacity="1" fill="#f1c0c0" fill-opacity="1"></use><g><use xlink:href="#b1KK07xeIt" opacity="1" fill-opacity="0" stroke="#000000" stroke-width="1" stroke-opacity="0"></use></g></g><g><use xlink:href="#g3FfibYXew" opacity="1" fill="#000000" fill-opacity="1"></use><g><use xlink:href="#g3FfibYXew" opacity="1" fill-opacity="0" stroke="#000000" stroke-width="1" stroke-opacity="0"></use></g></g><g><use xlink:href="#a1n3VYpVyJ" opacity="1" fill="#6c63ff" fill-opacity="1"></use><g><use xlink:href="#a1n3VYpVyJ" opacity="1" fill-opacity="0" stroke="#000000" stroke-width="1" stroke-opacity="0"></use></g></g><g><use xlink:href="#c192QNebte" opacity="1" fill="#6c63ff" fill-opacity="1"></use><g><use xlink:href="#c192QNebte" opacity="1" fill-opacity="0" stroke="#000000" stroke-width="1" stroke-opacity="0"></use></g></g><g><use xlink:href="#a58yvWyWF8" opacity="1" fill="#3f3d56" fill-opacity="1"></use><g><use xlink:href="#a58yvWyWF8" opacity="1" fill-opacity="0" stroke="#000000" stroke-width="1" stroke-opacity="0"></use></g></g><g><use xlink:href="#epQvDzyDh" opacity="1" fill="#be6f72" fill-opacity="1"></use><g><use xlink:href="#epQvDzyDh" opacity="1" fill-opacity="0" stroke="#000000" stroke-width="1" stroke-opacity="0"></use></g></g><g><use xlink:href="#a2zS5sfqrn" opacity="1" fill="#be6f72" fill-opacity="1"></use><g><use xlink:href="#a2zS5sfqrn" opacity="1" fill-opacity="0" stroke="#000000" stroke-width="1" stroke-opacity="0"></use></g></g><g><use xlink:href="#dSexwT12r" opacity="1" fill="#3f3d56" fill-opacity="1"></use><g><use xlink:href="#dSexwT12r" opacity="1" fill-opacity="0" stroke="#000000" stroke-width="1" stroke-opacity="0"></use></g></g><g><use xlink:href="#bQ7yLasHq" opacity="1" fill="#6c63ff" fill-opacity="1"></use><g><use xlink:href="#bQ7yLasHq" opacity="1" fill-opacity="0" stroke="#000000" stroke-width="1" stroke-opacity="0"></use></g></g><g><use xlink:href="#a4fxz5idPS" opacity="1" fill="#3f3d56" fill-opacity="1"></use><g><use xlink:href="#a4fxz5idPS" opacity="1" fill-opacity="0" stroke="#000000" stroke-width="1" stroke-opacity="0"></use></g></g><g><use xlink:href="#biRMItRi" opacity="1" fill="#be6f72" fill-opacity="1"></use><g><use xlink:href="#biRMItRi" opacity="1" fill-opacity="0" stroke="#000000" stroke-width="1" stroke-opacity="0"></use></g></g><g><use xlink:href="#b1h0dZhAPk" opacity="1" fill="#6c63ff" fill-opacity="1"></use><g><use xlink:href="#b1h0dZhAPk" opacity="1" fill-opacity="0" stroke="#000000" stroke-width="1" stroke-opacity="0"></use></g></g><g><use xlink:href="#b2xYISRI" opacity="1" fill="#000000" fill-opacity="1"></use><g><use xlink:href="#b2xYISRI" opacity="1" fill-opacity="0" stroke="#000000" stroke-width="1" stroke-opacity="0"></use></g></g><g><use xlink:href="#a3Ua4qR6Er" opacity="1" fill="#000000" fill-opacity="1"></use><g><use xlink:href="#a3Ua4qR6Er" opacity="1" fill-opacity="0" stroke="#000000" stroke-width="1" stroke-opacity="0"></use></g></g><g><use xlink:href="#c3nBC9ksg" opacity="1" fill="#3f3d56" fill-opacity="1"></use><g><use xlink:href="#c3nBC9ksg" opacity="1" fill-opacity="0" stroke="#000000" stroke-width="1" stroke-opacity="0"></use></g></g><g><use xlink:href="#afHO29xp" opacity="1" fill="#fed253" fill-opacity="1"></use><g><use xlink:href="#afHO29xp" opacity="1" fill-opacity="0" stroke="#000000" stroke-width="1" stroke-opacity="0"></use></g></g><g><use xlink:href="#b1E6ofyGYV" opacity="1" fill="#000000" fill-opacity="1"></use><g><use xlink:href="#b1E6ofyGYV" opacity="1" fill-opacity="0" stroke="#000000" stroke-width="1" stroke-opacity="0"></use></g></g><g><use xlink:href="#cpnbP70lc" opacity="1" fill="#000000" fill-opacity="1"></use><g><use xlink:href="#cpnbP70lc" opacity="1" fill-opacity="0" stroke="#000000" stroke-width="1" stroke-opacity="0"></use></g></g><g><use xlink:href="#c1s76cru5" opacity="1" fill="#000000" fill-opacity="1"></use><g><use xlink:href="#c1s76cru5" opacity="1" fill-opacity="0" stroke="#000000" stroke-width="1" stroke-opacity="0"></use></g></g><g><use xlink:href="#c1vKqh87jc" opacity="1" fill="#f1c0c0" fill-opacity="1"></use><g><use xlink:href="#c1vKqh87jc" opacity="1" fill-opacity="0" stroke="#000000" stroke-width="1" stroke-opacity="0"></use></g></g><g><use xlink:href="#eOVDPkBAM" opacity="1" fill="#000000" fill-opacity="1"></use><g><use xlink:href="#eOVDPkBAM" opacity="1" fill-opacity="0" stroke="#000000" stroke-width="1" stroke-opacity="0"></use></g></g><g><use xlink:href="#d2nME63LK4" opacity="1" fill="#000000" fill-opacity="1"></use><g><use xlink:href="#d2nME63LK4" opacity="1" fill-opacity="0" stroke="#000000" stroke-width="1" stroke-opacity="0"></use></g></g><g><use xlink:href="#i1bn4OPmwF" opacity="1" fill="#6c63ff" fill-opacity="1"></use><g><use xlink:href="#i1bn4OPmwF" opacity="1" fill-opacity="0" stroke="#000000" stroke-width="1" stroke-opacity="0"></use></g></g><g><use xlink:href="#b3RiU85WzY" opacity="1" fill="#6c63ff" fill-opacity="1"></use><g><use xlink:href="#b3RiU85WzY" opacity="1" fill-opacity="0" stroke="#000000" stroke-width="1" stroke-opacity="0"></use></g></g><g><use xlink:href="#bS5d3Fly" opacity="1" fill="#6c63ff" fill-opacity="1"></use><g><use xlink:href="#bS5d3Fly" opacity="1" fill-opacity="0" stroke="#000000" stroke-width="1" stroke-opacity="0"></use></g></g><g><use xlink:href="#m2IC6nqS51" opacity="1" fill="#3f3d56" fill-opacity="1"></use><g><use xlink:href="#m2IC6nqS51" opacity="1" fill-opacity="0" stroke="#000000" stroke-width="1" stroke-opacity="0"></use></g></g><g><use xlink:href="#b2TFYqClW" opacity="1" fill="#fbbebe" fill-opacity="1"></use><g><use xlink:href="#b2TFYqClW" opacity="1" fill-opacity="0" stroke="#000000" stroke-width="1" stroke-opacity="0"></use></g></g><g><use xlink:href="#a3P0GnfewV" opacity="1" fill="#fbbebe" fill-opacity="1"></use><g><use xlink:href="#a3P0GnfewV" opacity="1" fill-opacity="0" stroke="#000000" stroke-width="1" stroke-opacity="0"></use></g></g><g><use xlink:href="#b1qB7Idzhz" opacity="1" fill="#3f3d56" fill-opacity="1"></use><g><use xlink:href="#b1qB7Idzhz" opacity="1" fill-opacity="0" stroke="#000000" stroke-width="1" stroke-opacity="0"></use></g></g><g><use xlink:href="#bmJ161ENV" opacity="1" fill="#3f3d56" fill-opacity="1"></use><g><use xlink:href="#bmJ161ENV" opacity="1" fill-opacity="0" stroke="#000000" stroke-width="1" stroke-opacity="0"></use></g></g><g><use xlink:href="#c2in6gUNzc" opacity="1" fill="#fed253" fill-opacity="1"></use><g><use xlink:href="#c2in6gUNzc" opacity="1" fill-opacity="0" stroke="#000000" stroke-width="1" stroke-opacity="0"></use></g></g><g><use xlink:href="#b2hPhIS7KL" opacity="1" fill="#000000" fill-opacity="1"></use><g><use xlink:href="#b2hPhIS7KL" opacity="1" fill-opacity="0" stroke="#000000" stroke-width="1" stroke-opacity="0"></use></g></g><g><use xlink:href="#a1XU73oGeX" opacity="1" fill="#000000" fill-opacity="1"></use><g><use xlink:href="#a1XU73oGeX" opacity="1" fill-opacity="0" stroke="#000000" stroke-width="1" stroke-opacity="0"></use></g></g><g><use xlink:href="#ahwVGxh9" opacity="1" fill="#3f3d56" fill-opacity="1"></use><g><use xlink:href="#ahwVGxh9" opacity="1" fill-opacity="0" stroke="#000000" stroke-width="1" stroke-opacity="0"></use></g></g><g><use xlink:href="#e2Ew4SifBr" opacity="1" fill="#6c63ff" fill-opacity="1"></use><g><use xlink:href="#e2Ew4SifBr" opacity="1" fill-opacity="0" stroke="#000000" stroke-width="1" stroke-opacity="0"></use></g></g><g><use xlink:href="#b3rw6hE08n" opacity="1" fill="#f1c0c0" fill-opacity="1"></use><g><use xlink:href="#b3rw6hE08n" opacity="1" fill-opacity="0" stroke="#000000" stroke-width="1" stroke-opacity="0"></use></g></g><g><use xlink:href="#d5hwRllEi4" opacity="1" fill="#000000" fill-opacity="1"></use><g><use xlink:href="#d5hwRllEi4" opacity="1" fill-opacity="0" stroke="#000000" stroke-width="1" stroke-opacity="0"></use></g></g><g><use xlink:href="#aPyKMrik4" opacity="1" fill="#000000" fill-opacity="1"></use><g><use xlink:href="#aPyKMrik4" opacity="1" fill-opacity="0" stroke="#000000" stroke-width="1" stroke-opacity="0"></use></g></g><g><use xlink:href="#b6PmDUos7h" opacity="1" fill="#6c63ff" fill-opacity="1"></use><g><use xlink:href="#b6PmDUos7h" opacity="1" fill-opacity="0" stroke="#000000" stroke-width="1" stroke-opacity="0"></use></g></g><g><use xlink:href="#bbu9Z6OSZ" opacity="1" fill="#3f3d56" fill-opacity="1"></use><g><use xlink:href="#bbu9Z6OSZ" opacity="1" fill-opacity="0" stroke="#000000" stroke-width="1" stroke-opacity="0"></use></g></g></g></g></svg>
