<?xml version="1.0" encoding="UTF-8" standalone="no"?>
<!DOCTYPE svg PUBLIC "-//W3C//DTD SVG 1.1//EN" "http://www.w3.org/Graphics/SVG/1.1/DTD/svg11.dtd">
<svg version="1.1" xmlns="http://www.w3.org/2000/svg" xmlns:xlink="http://www.w3.org/1999/xlink" preserveAspectRatio="xMidYMid meet" viewBox="0 0 640 640" width="640" height="640"><defs><path d="M449.3 385.49C451.13 386.13 453.15 385.78 454.65 384.55C456.52 382.98 457.11 380.39 457.59 377.99C457.68 377.52 458.15 375.15 459 370.9C457.23 372.12 456.24 372.8 456.04 372.93C453.92 374.4 451.74 375.91 450.27 378.03C448.79 380.16 448.15 383.05 449.33 385.35" id="bq347dlX"></path><path d="M449.16 387.48C449.35 385.53 449.94 383.61 451.16 382.05C451.8 381.22 452.59 380.5 453.48 379.94C453.71 379.8 453.93 380.16 453.69 380.31C452.15 381.28 450.96 382.72 450.29 384.41C449.55 386.3 449.43 388.35 449.56 390.35C449.64 391.56 449.8 392.77 449.97 393.97C449.99 394.08 449.93 394.19 449.82 394.23C449.71 394.26 449.59 394.19 449.56 394.08C449.26 391.9 448.95 389.69 449.16 387.48Z" id="dg3T96pzb"></path><path d="M484.18 394.27C479.67 394.26 476.01 390.61 476.01 386.1C476.01 372.85 476.01 266.86 476.01 253.61C476.01 249.1 479.67 245.45 484.18 245.45C493.31 245.45 566.4 245.45 575.53 245.45C580.04 245.45 583.7 249.1 583.7 253.61C583.7 266.86 583.7 372.85 583.7 386.1C583.7 390.61 580.04 394.26 575.53 394.27C575.53 394.27 493.31 394.27 484.18 394.27Z" id="a7dN8EmHcz"></path><path d="M483.67 388.43C482.28 388.42 481.15 387.3 481.15 385.91C481.15 372.57 481.15 265.88 481.15 252.54C481.15 251.15 482.28 250.03 483.67 250.03C492.84 250.03 566.18 250.03 575.35 250.03C576.74 250.03 577.86 251.15 577.87 252.54C577.87 265.88 577.87 372.57 577.87 385.91C577.86 387.3 576.74 388.42 575.35 388.43C575.35 388.43 492.84 388.43 483.67 388.43Z" id="dlrimVdJ4"></path><path d="M529.51 247.25C529.12 247.25 528.81 247.56 528.81 247.95C528.81 248.33 529.12 248.64 529.51 248.64C529.89 248.64 530.2 248.33 530.2 247.95C530.2 247.56 529.89 247.25 529.51 247.25Z" id="a34bLqx5A7"></path><path d="M487.57 311.95L565.71 311.95C565.71 303.91 565.71 299.45 565.71 298.56C565.68 295.7 564.51 292.98 562.46 291C562.45 291 562.44 290.98 562.43 290.98C561.04 289.58 556.37 286.03 551.55 286.33C549 286.49 546.82 287.72 545.06 289.98C539.6 297.03 532.42 294.65 528.63 292.61C525.29 290.8 521.88 289.96 518.49 290.09C513.74 290.28 507.06 292.02 502.19 299.3C500.33 302.08 496.28 305.85 487.57 308.06C487.57 308.58 487.57 309.88 487.57 311.95Z" id="agm1iRP"></path><path d="M487.72 312.26C487.58 312.26 487.46 312.15 487.46 312C487.47 311.98 487.51 311.89 487.58 311.72C537.11 311.73 564.63 311.74 570.13 311.75C570.27 311.75 570.39 311.86 570.39 312C570.39 312.15 570.27 312.26 570.13 312.26C570.13 312.26 570.13 312.26 570.13 312.26C570.13 312.26 495.96 312.26 487.72 312.26Z" id="k3vH4hiP2B"></path><path d="M503.39 297.07C503.39 297.07 503.39 297.07 503.39 297.07C503.39 305.97 503.39 310.91 503.39 311.9C503.39 311.9 503.39 311.9 503.39 311.9C503.09 311.9 502.92 311.9 502.89 311.9C502.89 311.9 502.89 311.9 502.89 311.9C502.89 303 502.89 298.06 502.89 297.07C502.89 297.07 502.89 297.07 502.89 297.07C503.19 297.07 503.36 297.07 503.39 297.07Z" id="ahFbGdu1R"></path><path d="M518.54 290.15C518.54 290.15 518.54 290.15 518.54 290.15C518.54 303.2 518.54 310.45 518.54 311.9C518.54 311.9 518.54 311.9 518.54 311.9C518.23 311.9 518.07 311.9 518.03 311.9C518.03 311.9 518.03 311.9 518.03 311.9C518.03 298.85 518.03 291.6 518.03 290.15C518.03 290.15 518.03 290.15 518.03 290.15C518.34 290.15 518.5 290.15 518.54 290.15Z" id="bEWcyvPy1"></path><path d="M533.71 294.7C533.71 294.7 533.71 294.7 533.71 294.7C533.71 305.02 533.71 310.75 533.71 311.9C533.71 311.9 533.71 311.9 533.71 311.9C533.41 311.9 533.24 311.9 533.21 311.9C533.21 311.9 533.21 311.9 533.21 311.9C533.21 301.58 533.21 295.85 533.21 294.7C533.21 294.7 533.21 294.7 533.21 294.7C533.51 294.7 533.68 294.7 533.71 294.7Z" id="a4eZzTpGd"></path><path d="M548.89 286.35C548.89 286.35 548.89 286.35 548.89 286.35C548.89 301.68 548.89 310.2 548.89 311.9C548.89 311.9 548.89 311.9 548.89 311.9C548.59 311.9 548.42 311.9 548.38 311.9C548.38 311.9 548.38 311.9 548.38 311.9C548.38 296.57 548.38 288.06 548.38 286.35C548.38 286.35 548.38 286.35 548.38 286.35C548.69 286.35 548.86 286.35 548.89 286.35Z" id="a48VmM69lH"></path><path d="M564.06 292.17C564.06 292.17 564.06 292.17 564.06 292.17C564.06 304.01 564.06 310.58 564.06 311.9C564.06 311.9 564.06 311.9 564.06 311.9C563.76 311.9 563.59 311.9 563.56 311.9C563.56 311.9 563.56 311.9 563.56 311.9C563.56 300.06 563.56 293.49 563.56 292.17C563.56 292.17 563.56 292.17 563.56 292.17C563.86 292.17 564.03 292.17 564.06 292.17Z" id="bWyzh4Eq"></path><path d="M518.32 288.95C517.46 288.95 516.77 289.64 516.77 290.5C516.77 291.35 517.46 292.04 518.32 292.04C519.17 292.04 519.86 291.35 519.86 290.5C519.86 289.64 519.17 288.95 518.32 288.95Z" id="a5Mb23Om9"></path><path d="M548.67 284.9C547.81 284.9 547.12 285.59 547.12 286.45C547.12 287.3 547.81 288 548.67 288C549.52 288 550.21 287.3 550.21 286.45C550.21 285.59 549.52 284.9 548.67 284.9Z" id="b39n4RK23"></path><path d="M533.49 293.25C532.64 293.25 531.94 293.94 531.94 294.8C531.94 295.65 532.64 296.34 533.49 296.34C534.35 296.34 535.04 295.65 535.04 294.8C535.04 293.94 534.35 293.25 533.49 293.25Z" id="a3tutXdnX"></path><path d="M503.14 295.52C502.29 295.52 501.59 296.22 501.59 297.07C501.59 297.93 502.29 298.62 503.14 298.62C504 298.62 504.69 297.93 504.69 297.07C504.69 296.22 504 295.52 503.14 295.52Z" id="a2RbxPIOl"></path><path d="M563.84 290.47C562.99 290.47 562.3 291.16 562.3 292.01C562.3 292.87 562.99 293.56 563.84 293.56C564.7 293.56 565.39 292.87 565.39 292.01C565.39 291.16 564.7 290.47 563.84 290.47Z" id="abawOYqTT"></path><path d="M517.88 365.91C517.88 350.19 517.88 341.46 517.88 339.71C517.88 339.38 518.15 339.1 518.49 339.1C518.76 339.1 520.93 339.1 521.2 339.1C521.54 339.1 521.81 339.38 521.81 339.71C521.81 339.71 521.81 339.71 521.81 339.71L521.81 365.98L517.88 365.91Z" id="e7HqiINBnC"></path><path d="M526.85 365.99C526.85 353.49 526.85 346.55 526.85 345.16C526.85 344.83 527.12 344.55 527.46 344.55C527.73 344.55 529.9 344.55 530.17 344.55C530.51 344.55 530.78 344.83 530.78 345.16C530.78 345.16 530.78 345.16 530.78 345.16L530.78 365.95L526.85 365.99Z" id="ams4SId6x"></path><path d="M544.78 365.9C544.78 347.78 544.78 337.72 544.78 335.71C544.76 335.34 545.03 335.03 545.39 335C545.66 335 547.83 335 548.1 335C548.46 335.03 548.74 335.34 548.71 335.71C548.71 337.72 548.71 347.81 548.71 365.98L544.78 365.9Z" id="a4ryrN0YOw"></path><path d="M508.91 365.94C508.91 357.19 508.91 352.33 508.91 351.36C508.91 351.18 509.19 351.02 509.52 351.02C509.79 351.02 511.97 351.02 512.24 351.02C512.57 351.02 512.85 351.18 512.85 351.36C512.85 352.34 512.85 357.21 512.85 365.98L508.91 365.94Z" id="g1pK8F2Bii"></path><path d="M535.81 365.89C535.81 345.33 535.81 333.91 535.81 331.62C535.81 331.19 536.09 330.83 536.42 330.83C536.69 330.83 538.87 330.83 539.14 330.83C539.47 330.83 539.75 331.19 539.75 331.62C539.75 333.91 539.75 345.37 539.75 365.98L535.81 365.89Z" id="c83FDXaev6"></path><path d="M499.01 366.29C498.88 366.29 498.77 366.18 498.77 366.05C498.77 365.91 498.88 365.81 499.01 365.81C505.15 365.81 554.27 365.81 560.41 365.81C560.55 365.81 560.66 365.91 560.66 366.05C560.66 366.18 560.55 366.29 560.41 366.29C548.13 366.29 505.15 366.29 499.01 366.29Z" id="a2wktUtWB"></path><path d="M630.7 391.5L629.33 380.41L633.57 380.41L633.57 391.5L633.57 391.5L630.7 391.5Z" id="b1IUnKHmq"></path><path d="M634.3 394.28L625.03 394.28C625.03 394.21 625.03 394.17 625.03 394.17C625.03 392.17 626.65 390.56 628.64 390.56C628.64 390.56 628.64 390.56 628.64 390.56L634.31 390.56L634.3 394.28Z" id="b4YX5sIr6Z"></path><path d="M608.95 390.66L610.49 379.59L614.59 380.69L611.73 391.4L611.73 391.4L608.95 390.66Z" id="b2R8nJ9MX"></path><path d="M611.72 394.28L602.76 391.89C602.78 391.82 602.79 391.78 602.79 391.78C603.3 389.85 605.28 388.71 607.21 389.22C607.21 389.22 607.21 389.22 607.21 389.22L612.68 390.68L611.72 394.28Z" id="b5MQYYN2K"></path><path d="M637.63 332.14L634.52 389L627.87 389L624.51 345.25L614.11 390.18L607.19 388.48L613.48 331.42L635.23 329.34L635.23 329.34L637.63 332.14Z" id="i1kNWzDCAW"></path><path d="M615.09 292.63L621.72 289.31L631.9 289.49L640.67 293.98L635.68 318.89L637.84 331.87C637.84 331.87 637.84 331.87 637.84 331.87C629.51 334 620.79 334.07 612.43 332.08C612.42 332.08 612.37 332.07 612.36 332.07C612.36 332.07 617.31 314.5 615.21 309.14C615.19 306.93 615.15 301.43 615.09 292.63Z" id="b1gzEok8vL"></path><path d="M626.72 271.88C622.58 271.89 619.23 275.27 619.24 279.41C619.26 283.56 622.63 286.91 626.78 286.89C630.9 286.87 634.24 283.54 634.26 279.41C634.26 279.39 634.26 279.37 634.26 279.36C632 274.36 629.49 271.87 626.72 271.88Z" id="b3gVBb1ROp"></path><path d="M624.82 274.49C625.63 274.46 626.83 274.75 627.34 275.4C627.75 275.92 627.77 276.64 627.77 277.31C627.77 277.49 627.78 278.96 627.78 279.15C627.78 279.69 627.78 280.26 628.03 280.74C628.28 281.23 628.84 281.6 629.36 281.43C629.98 281.23 630.25 280.42 630.88 280.27C631.35 280.16 631.83 280.5 632.04 280.94C632.21 281.4 632.27 281.89 632.21 282.37C632.15 283.33 630.77 283.71 630.57 284.66C630.46 285.2 630.06 286.29 630.57 286.07C632.92 285.83 633.95 284.46 635.02 283.17C635.26 282.88 637.2 280.55 637.44 280.26C637.72 279.97 637.93 279.63 638.06 279.25C638.12 278.99 638.14 278.72 638.13 278.45C638.11 277.37 638.07 276.5 638.07 276.28C638.05 275.65 637.89 274.85 637.27 274.72C636.95 274.66 636.52 274.77 636.35 274.49C636.29 274.35 636.28 274.19 636.32 274.05C636.46 273.32 636.69 272.57 636.45 271.87C636.09 270.83 634.86 270.4 633.77 270.2C632.68 270 631.46 269.83 630.77 268.96C630.59 268.67 630.39 268.39 630.18 268.12C629.87 267.84 629.48 267.64 629.06 267.56C627.71 267.22 626.28 267.35 625.01 267.92C624.48 268.16 623.95 268.49 623.38 268.45C622.78 268.41 622.26 267.99 621.67 267.89C620.71 267.72 619.8 268.44 619.32 269.29C618.74 270.34 618.69 271.78 619.51 272.66C619.92 273.1 620.54 273.4 620.71 273.97C620.78 274.21 620.76 274.46 620.83 274.7C620.97 275.18 621.38 275.53 621.88 275.61C622.46 275.7 622.96 275.43 623.39 275.07C623.78 274.7 624.29 274.5 624.82 274.49Z" id="b2dZNw1jO"></path><path d="M617.66 312.33C617.8 312.27 617.95 312.2 618.08 312.11C618.98 312.59 623.46 314.96 631.53 319.23L631.97 315.95C624.13 311.32 619.77 308.76 618.9 308.24C618.04 307.02 616.35 306.73 615.13 307.59C614.11 308.31 613.72 309.63 614.18 310.8C614.72 312.18 616.27 312.86 617.66 312.33Z" id="b2zIsmXYC0"></path><path d="M628.37 312.09C628.24 312 628.12 311.91 628 311.79C627.02 312.06 622.13 313.39 613.32 315.79L613.45 311.63C622.21 309.35 627.08 308.09 628.05 307.84C629.16 306.83 630.87 306.92 631.87 308.02C632.71 308.95 632.81 310.33 632.1 311.36C631.27 312.59 629.6 312.92 628.37 312.09Z" id="ahMzKlCqC"></path><path d="M637.81 294.15C639.53 294.05 640.48 293.99 640.67 293.98C640.67 293.98 644.02 298.4 642.16 303.2C642.16 303.2 642.48 320.43 635.06 319.73C627.64 319.02 625.29 319.02 625.29 319.02C625.44 318.6 626.18 316.53 627.52 312.8C630.51 311.88 632.17 311.37 632.51 311.26C632.51 311.26 630.97 304.49 633.88 301.67C634.4 300.67 635.71 298.16 637.81 294.15Z" id="cPpcHKLSx"></path><path d="M617.14 294C616.89 292.76 616.76 292.07 616.73 291.93C616.73 291.93 610.77 291.79 609.59 300.83C609.59 300.83 604.22 314.36 609.48 316.1C614.74 317.85 620.52 316.1 620.52 316.1C620.5 315.71 620.35 313.72 620.09 310.14C616.62 309.43 614.69 309.03 614.3 308.95C614.3 308.95 617.29 305.09 615.66 301.73C615.86 300.7 616.35 298.13 617.14 294Z" id="fT64LRny6"></path><path d="M443.24 394.56C443.11 394.56 443 394.45 443 394.31C443 394.18 443.11 394.07 443.24 394.07C464.29 394.07 632.71 394.07 653.76 394.07C653.89 394.07 654 394.18 654 394.31C654 394.45 653.89 394.56 653.76 394.56C611.65 394.56 464.29 394.56 443.24 394.56Z" id="alEJLOCOw"></path><path d="M0 247.25L481.15 247.25L481.15 394.07L0 394.07L0 247.25Z" id="b2wHPWflVx"></path></defs><g><g><g><use xlink:href="#bq347dlX" opacity="1" fill="#e4e4e4" fill-opacity="1"></use><g><use xlink:href="#bq347dlX" opacity="1" fill-opacity="0" stroke="#000000" stroke-width="1" stroke-opacity="0"></use></g></g><g><use xlink:href="#dg3T96pzb" opacity="1" fill="#f2f2f2" fill-opacity="1"></use><g><use xlink:href="#dg3T96pzb" opacity="1" fill-opacity="0" stroke="#000000" stroke-width="1" stroke-opacity="0"></use></g></g><g><use xlink:href="#a7dN8EmHcz" opacity="1" fill="#3f3d56" fill-opacity="1"></use><g><use xlink:href="#a7dN8EmHcz" opacity="1" fill-opacity="0" stroke="#000000" stroke-width="1" stroke-opacity="0"></use></g></g><g><use xlink:href="#dlrimVdJ4" opacity="1" fill="#ffffff" fill-opacity="1"></use><g><use xlink:href="#dlrimVdJ4" opacity="1" fill-opacity="0" stroke="#000000" stroke-width="1" stroke-opacity="0"></use></g></g><g><use xlink:href="#a34bLqx5A7" opacity="1" fill="#ffffff" fill-opacity="1"></use><g><use xlink:href="#a34bLqx5A7" opacity="1" fill-opacity="0" stroke="#000000" stroke-width="1" stroke-opacity="0"></use></g></g><g><use xlink:href="#agm1iRP" opacity="1" fill="#e4e4e4" fill-opacity="1"></use><g><use xlink:href="#agm1iRP" opacity="1" fill-opacity="0" stroke="#000000" stroke-width="1" stroke-opacity="0"></use></g></g><g><use xlink:href="#k3vH4hiP2B" opacity="1" fill="#3f3d56" fill-opacity="1"></use><g><use xlink:href="#k3vH4hiP2B" opacity="1" fill-opacity="0" stroke="#000000" stroke-width="1" stroke-opacity="0"></use></g></g><g><use xlink:href="#ahFbGdu1R" opacity="1" fill="#3f3d56" fill-opacity="1"></use><g><use xlink:href="#ahFbGdu1R" opacity="1" fill-opacity="0" stroke="#000000" stroke-width="1" stroke-opacity="0"></use></g></g><g><use xlink:href="#bEWcyvPy1" opacity="1" fill="#3f3d56" fill-opacity="1"></use><g><use xlink:href="#bEWcyvPy1" opacity="1" fill-opacity="0" stroke="#000000" stroke-width="1" stroke-opacity="0"></use></g></g><g><use xlink:href="#a4eZzTpGd" opacity="1" fill="#3f3d56" fill-opacity="1"></use><g><use xlink:href="#a4eZzTpGd" opacity="1" fill-opacity="0" stroke="#000000" stroke-width="1" stroke-opacity="0"></use></g></g><g><use xlink:href="#a48VmM69lH" opacity="1" fill="#3f3d56" fill-opacity="1"></use><g><use xlink:href="#a48VmM69lH" opacity="1" fill-opacity="0" stroke="#000000" stroke-width="1" stroke-opacity="0"></use></g></g><g><use xlink:href="#bWyzh4Eq" opacity="1" fill="#3f3d56" fill-opacity="1"></use><g><use xlink:href="#bWyzh4Eq" opacity="1" fill-opacity="0" stroke="#000000" stroke-width="1" stroke-opacity="0"></use></g></g><g><use xlink:href="#a5Mb23Om9" opacity="1" fill="#6c63ff" fill-opacity="1"></use><g><use xlink:href="#a5Mb23Om9" opacity="1" fill-opacity="0" stroke="#000000" stroke-width="1" stroke-opacity="0"></use></g></g><g><use xlink:href="#b39n4RK23" opacity="1" fill="#6c63ff" fill-opacity="1"></use><g><use xlink:href="#b39n4RK23" opacity="1" fill-opacity="0" stroke="#000000" stroke-width="1" stroke-opacity="0"></use></g></g><g><use xlink:href="#a3tutXdnX" opacity="1" fill="#6c63ff" fill-opacity="1"></use><g><use xlink:href="#a3tutXdnX" opacity="1" fill-opacity="0" stroke="#000000" stroke-width="1" stroke-opacity="0"></use></g></g><g><use xlink:href="#a2RbxPIOl" opacity="1" fill="#6c63ff" fill-opacity="1"></use><g><use xlink:href="#a2RbxPIOl" opacity="1" fill-opacity="0" stroke="#000000" stroke-width="1" stroke-opacity="0"></use></g></g><g><use xlink:href="#abawOYqTT" opacity="1" fill="#6c63ff" fill-opacity="1"></use><g><use xlink:href="#abawOYqTT" opacity="1" fill-opacity="0" stroke="#000000" stroke-width="1" stroke-opacity="0"></use></g></g><g><use xlink:href="#e7HqiINBnC" opacity="1" fill="#3f3d56" fill-opacity="1"></use><g><use xlink:href="#e7HqiINBnC" opacity="1" fill-opacity="0" stroke="#000000" stroke-width="1" stroke-opacity="0"></use></g></g><g><use xlink:href="#ams4SId6x" opacity="1" fill="#3f3d56" fill-opacity="1"></use><g><use xlink:href="#ams4SId6x" opacity="1" fill-opacity="0" stroke="#000000" stroke-width="1" stroke-opacity="0"></use></g></g><g><use xlink:href="#a4ryrN0YOw" opacity="1" fill="#3f3d56" fill-opacity="1"></use><g><use xlink:href="#a4ryrN0YOw" opacity="1" fill-opacity="0" stroke="#000000" stroke-width="1" stroke-opacity="0"></use></g></g><g><use xlink:href="#g1pK8F2Bii" opacity="1" fill="#3f3d56" fill-opacity="1"></use><g><use xlink:href="#g1pK8F2Bii" opacity="1" fill-opacity="0" stroke="#000000" stroke-width="1" stroke-opacity="0"></use></g></g><g><use xlink:href="#c83FDXaev6" opacity="1" fill="#6c63ff" fill-opacity="1"></use><g><use xlink:href="#c83FDXaev6" opacity="1" fill-opacity="0" stroke="#000000" stroke-width="1" stroke-opacity="0"></use></g></g><g><use xlink:href="#a2wktUtWB" opacity="1" fill="#3f3d56" fill-opacity="1"></use><g><use xlink:href="#a2wktUtWB" opacity="1" fill-opacity="0" stroke="#000000" stroke-width="1" stroke-opacity="0"></use></g></g><g><use xlink:href="#b1IUnKHmq" opacity="1" fill="#ffb6b6" fill-opacity="1"></use><g><use xlink:href="#b1IUnKHmq" opacity="1" fill-opacity="0" stroke="#000000" stroke-width="1" stroke-opacity="0"></use></g></g><g><use xlink:href="#b4YX5sIr6Z" opacity="1" fill="#2f2e41" fill-opacity="1"></use><g><use xlink:href="#b4YX5sIr6Z" opacity="1" fill-opacity="0" stroke="#000000" stroke-width="1" stroke-opacity="0"></use></g></g><g><use xlink:href="#b2R8nJ9MX" opacity="1" fill="#ffb6b6" fill-opacity="1"></use><g><use xlink:href="#b2R8nJ9MX" opacity="1" fill-opacity="0" stroke="#000000" stroke-width="1" stroke-opacity="0"></use></g></g><g><use xlink:href="#b5MQYYN2K" opacity="1" fill="#2f2e41" fill-opacity="1"></use><g><use xlink:href="#b5MQYYN2K" opacity="1" fill-opacity="0" stroke="#000000" stroke-width="1" stroke-opacity="0"></use></g></g><g><use xlink:href="#i1kNWzDCAW" opacity="1" fill="#2f2e41" fill-opacity="1"></use><g><use xlink:href="#i1kNWzDCAW" opacity="1" fill-opacity="0" stroke="#000000" stroke-width="1" stroke-opacity="0"></use></g></g><g><use xlink:href="#b1gzEok8vL" opacity="1" fill="#e4e4e4" fill-opacity="1"></use><g><use xlink:href="#b1gzEok8vL" opacity="1" fill-opacity="0" stroke="#000000" stroke-width="1" stroke-opacity="0"></use></g></g><g><use xlink:href="#b3gVBb1ROp" opacity="1" fill="#ffb6b6" fill-opacity="1"></use><g><use xlink:href="#b3gVBb1ROp" opacity="1" fill-opacity="0" stroke="#000000" stroke-width="1" stroke-opacity="0"></use></g></g><g><use xlink:href="#b2dZNw1jO" opacity="1" fill="#2f2e41" fill-opacity="1"></use><g><use xlink:href="#b2dZNw1jO" opacity="1" fill-opacity="0" stroke="#000000" stroke-width="1" stroke-opacity="0"></use></g></g><g><use xlink:href="#b2zIsmXYC0" opacity="1" fill="#ffb6b6" fill-opacity="1"></use><g><use xlink:href="#b2zIsmXYC0" opacity="1" fill-opacity="0" stroke="#000000" stroke-width="1" stroke-opacity="0"></use></g></g><g><use xlink:href="#ahMzKlCqC" opacity="1" fill="#ffb6b6" fill-opacity="1"></use><g><use xlink:href="#ahMzKlCqC" opacity="1" fill-opacity="0" stroke="#000000" stroke-width="1" stroke-opacity="0"></use></g></g><g><use xlink:href="#cPpcHKLSx" opacity="1" fill="#e4e4e4" fill-opacity="1"></use><g><use xlink:href="#cPpcHKLSx" opacity="1" fill-opacity="0" stroke="#000000" stroke-width="1" stroke-opacity="0"></use></g></g><g><use xlink:href="#fT64LRny6" opacity="1" fill="#e4e4e4" fill-opacity="1"></use><g><use xlink:href="#fT64LRny6" opacity="1" fill-opacity="0" stroke="#000000" stroke-width="1" stroke-opacity="0"></use></g></g><g><use xlink:href="#alEJLOCOw" opacity="1" fill="#cacaca" fill-opacity="1"></use><g><use xlink:href="#alEJLOCOw" opacity="1" fill-opacity="0" stroke="#000000" stroke-width="1" stroke-opacity="0"></use></g></g><g><use xlink:href="#b2wHPWflVx" opacity="0" fill="#3e9c5a" fill-opacity="1"></use></g></g></g></svg>