<?xml version="1.0" encoding="UTF-8" standalone="no"?>
<!DOCTYPE svg PUBLIC "-//W3C//DTD SVG 1.1//EN" "http://www.w3.org/Graphics/SVG/1.1/DTD/svg11.dtd">
<svg version="1.1" xmlns="http://www.w3.org/2000/svg" xmlns:xlink="http://www.w3.org/1999/xlink" preserveAspectRatio="xMidYMid meet" viewBox="0 0 640 640" width="640" height="640"><defs><path d="M361.01 17.44L361.01 164.26L-101 164.26L-101 17.44L361.01 17.44Z" id="aSrUAxXRA"></path><path d="M751.11 191.47L951.11 191.47L951.11 677L751.11 677L751.11 191.47Z" id="c2c974yevz"></path><path d="M432.64 24.68C430.73 24.68 429.18 26.23 429.18 28.14C429.18 30.05 430.73 31.61 432.64 31.61C434.55 31.61 436.11 30.05 436.11 28.14C436.11 26.23 434.55 24.68 432.64 24.68Z" id="a451gd9b6b"></path><path d="M443.03 24.68C441.12 24.68 439.57 26.23 439.57 28.14C439.57 30.05 441.12 31.61 443.03 31.61C444.95 31.61 446.5 30.05 446.5 28.14C446.5 26.23 444.95 24.68 443.03 24.68Z" id="dZ5dOND3W"></path><path d="M453.43 24.68C451.51 24.68 449.96 26.23 449.96 28.14C449.96 30.05 451.51 31.61 453.43 31.61C455.34 31.61 456.89 30.05 456.89 28.14C456.89 26.23 455.34 24.68 453.43 24.68Z" id="a3j63Gb5ua"></path><path d="M463.82 24.68C461.91 24.68 460.36 26.23 460.36 28.14C460.36 30.05 461.91 31.61 463.82 31.61C465.73 31.61 467.28 30.05 467.28 28.14C467.28 26.23 465.73 24.68 463.82 24.68Z" id="cDtiiYMLQ"></path><path d="M474.21 24.68C472.3 24.68 470.75 26.23 470.75 28.14C470.75 30.05 472.3 31.61 474.21 31.61C476.13 31.61 477.68 30.05 477.68 28.14C477.68 26.23 476.13 24.68 474.21 24.68Z" id="bSCXQZ3r"></path><path d="M484.61 24.68C482.69 24.68 481.14 26.23 481.14 28.14C481.14 30.05 482.69 31.61 484.61 31.61C486.52 31.61 488.07 30.05 488.07 28.14C488.07 26.23 486.52 24.68 484.61 24.68Z" id="d45ZnexVdk"></path><path d="M495 24.68C493.08 24.68 491.53 26.23 491.53 28.14C491.53 30.05 493.08 31.61 495 31.61C496.91 31.61 498.46 30.05 498.46 28.14C498.46 26.23 496.91 24.68 495 24.68Z" id="baMQ18at8"></path><path d="M424.64 32.36C423.86 32.36 423.23 31.73 423.23 30.95C423.23 30.39 423.23 25.89 423.23 25.33C423.23 24.55 423.86 23.92 424.64 23.92C432.47 23.92 495.17 23.92 503 23.92C503.78 23.92 504.41 24.55 504.41 25.33C504.41 25.89 504.41 30.39 504.41 30.95C504.41 31.73 503.78 32.36 503 32.36C503 32.36 432.47 32.36 424.64 32.36ZM424.64 24.49C424.17 24.49 423.79 24.87 423.79 25.33C423.79 25.89 423.79 30.39 423.79 30.95C423.79 31.42 424.17 31.8 424.64 31.8C432.47 31.8 495.17 31.8 503 31.8C503.47 31.8 503.85 31.42 503.85 30.95C503.85 30.39 503.85 25.89 503.85 25.33C503.85 24.87 503.47 24.49 503 24.49C487.33 24.49 440.31 24.49 424.64 24.49Z" id="ccid3LyZq"></path><path d="M441.41 0.81C441.85 0.81 442.22 1.17 442.22 1.62C442.22 3.38 442.22 17.42 442.22 19.17C442.22 19.62 441.85 19.98 441.41 19.98C439.69 19.98 425.93 19.98 424.21 19.98C423.77 19.98 423.4 19.62 423.4 19.17C423.4 17.42 423.4 3.38 423.4 1.62C423.4 1.17 423.77 0.81 424.21 0.81C425.36 0.81 431.09 0.81 441.41 0.81M424.21 0C423.32 0 422.59 0.73 422.59 1.62C422.59 3.38 422.59 17.42 422.59 19.17C422.59 20.07 423.32 20.79 424.21 20.79C425.93 20.79 439.69 20.79 441.41 20.79C442.3 20.79 443.03 20.07 443.03 19.17C443.03 17.42 443.03 3.38 443.03 1.62C443.03 0.73 442.3 0 441.41 0C441.41 0 425.93 0 424.21 0Z" id="i5DjVmt2Dm"></path><path d="M427.25 5.42C427.03 5.43 426.85 5.24 426.85 5.02C426.84 4.8 427.03 4.62 427.25 4.61C427.25 4.61 427.25 4.61 427.25 4.61C428.4 4.61 437.58 4.61 438.73 4.61C438.95 4.61 439.13 4.79 439.13 5.02C439.13 5.24 438.95 5.42 438.73 5.42C438.73 5.42 438.73 5.42 438.73 5.42C438.73 5.42 428.4 5.42 427.25 5.42Z" id="c1W6iCa1SJ"></path><path d="M427.25 8.29C427.03 8.29 426.85 8.11 426.85 7.89C426.84 7.67 427.03 7.48 427.25 7.48C427.25 7.48 427.25 7.48 427.25 7.48C428.4 7.48 437.58 7.48 438.73 7.48C438.95 7.48 439.13 7.66 439.13 7.88C439.13 8.11 438.95 8.29 438.73 8.29C438.73 8.29 438.73 8.29 438.73 8.29C436.43 8.29 428.4 8.29 427.25 8.29Z" id="c3rKcceLm"></path><path d="M427.25 11.16C427.03 11.16 426.85 10.98 426.85 10.76C426.84 10.53 427.03 10.35 427.25 10.35C427.25 10.35 427.25 10.35 427.25 10.35C428.4 10.35 437.58 10.35 438.73 10.35C438.95 10.35 439.13 10.53 439.13 10.75C439.13 10.98 438.95 11.16 438.73 11.16C438.73 11.16 438.73 11.16 438.73 11.16C436.43 11.16 428.4 11.16 427.25 11.16Z" id="a16gI1vqZx"></path><path d="M427.25 14.03C427.03 14.03 426.85 13.85 426.85 13.63C426.84 13.4 427.03 13.22 427.25 13.22C427.25 13.22 427.25 13.22 427.25 13.22C428.4 13.22 437.58 13.22 438.73 13.22C438.95 13.22 439.13 13.4 439.13 13.62C439.13 13.84 438.95 14.03 438.73 14.03C438.73 14.03 438.73 14.03 438.73 14.03C436.43 14.03 428.4 14.03 427.25 14.03Z" id="dj17gZ72Q"></path><path d="M427.25 16.9C427.03 16.9 426.85 16.71 426.85 16.49C426.85 16.27 427.03 16.09 427.25 16.09C428.4 16.09 437.58 16.09 438.73 16.09C438.95 16.09 439.13 16.27 439.13 16.49C439.13 16.71 438.95 16.9 438.73 16.9C436.43 16.9 428.4 16.9 427.25 16.9Z" id="e2X6kzxbHZ"></path><path d="M500.13 0.81C500.58 0.81 500.94 1.17 500.94 1.62C500.94 3.38 500.94 17.42 500.94 19.17C500.94 19.62 500.58 19.98 500.13 19.98C498.41 19.98 484.66 19.98 482.94 19.98C482.49 19.98 482.13 19.62 482.13 19.17C482.13 17.42 482.13 3.38 482.13 1.62C482.13 1.17 482.49 0.81 482.94 0.81C484.08 0.81 489.82 0.81 500.13 0.81M482.94 0C482.04 0 481.32 0.73 481.32 1.62C481.32 3.38 481.32 17.42 481.32 19.17C481.32 20.07 482.04 20.79 482.94 20.79C484.66 20.79 498.41 20.79 500.13 20.79C501.03 20.79 501.75 20.07 501.75 19.17C501.75 17.42 501.75 3.38 501.75 1.62C501.75 0.73 501.03 0 500.13 0C500.13 0 484.66 0 482.94 0Z" id="a1BaYDn6Ul"></path><path d="M485.98 5.42C485.75 5.43 485.57 5.24 485.57 5.02C485.57 4.8 485.75 4.62 485.97 4.61C485.98 4.61 485.98 4.61 485.98 4.61C487.13 4.61 496.3 4.61 497.45 4.61C497.67 4.62 497.85 4.8 497.85 5.02C497.85 5.24 497.67 5.42 497.45 5.42C497.45 5.42 487.13 5.42 485.98 5.42Z" id="a2ue3FKfxN"></path><path d="M485.98 8.29C485.75 8.29 485.57 8.11 485.57 7.89C485.57 7.67 485.75 7.48 485.97 7.48C485.98 7.48 485.98 7.48 485.98 7.48C487.13 7.48 496.3 7.48 497.45 7.48C497.67 7.48 497.85 7.67 497.85 7.89C497.85 8.11 497.67 8.29 497.45 8.29C497.45 8.29 487.13 8.29 485.98 8.29Z" id="a33Qq8U0V6"></path><path d="M485.98 11.16C485.75 11.16 485.57 10.98 485.57 10.76C485.57 10.53 485.75 10.35 485.97 10.35C485.98 10.35 485.98 10.35 485.98 10.35C487.13 10.35 496.3 10.35 497.45 10.35C497.67 10.35 497.85 10.53 497.85 10.76C497.85 10.98 497.67 11.16 497.45 11.16C497.45 11.16 487.13 11.16 485.98 11.16Z" id="e1EIMmMrnp"></path><path d="M485.98 14.03C485.75 14.03 485.57 13.85 485.57 13.63C485.57 13.4 485.75 13.22 485.97 13.22C485.98 13.22 485.98 13.22 485.98 13.22C487.13 13.22 496.3 13.22 497.45 13.22C497.67 13.22 497.85 13.4 497.85 13.63C497.85 13.85 497.67 14.03 497.45 14.03C497.45 14.03 487.13 14.03 485.98 14.03Z" id="b1rB1Ktice"></path><path d="M485.98 16.9C485.75 16.9 485.57 16.71 485.57 16.49C485.57 16.27 485.75 16.09 485.98 16.09C487.13 16.09 496.3 16.09 497.45 16.09C497.67 16.09 497.86 16.27 497.86 16.49C497.86 16.71 497.67 16.9 497.45 16.9C497.45 16.9 487.13 16.9 485.98 16.9Z" id="ak7pDhnF9"></path><path d="M558.57 34.56C559.02 34.56 559.38 34.92 559.38 35.37C559.38 37.12 559.38 51.17 559.38 52.92C559.38 53.37 559.02 53.73 558.57 53.73C556.85 53.73 543.1 53.73 541.38 53.73C540.93 53.73 540.57 53.37 540.57 52.92C540.57 51.17 540.57 37.12 540.57 35.37C540.57 34.92 540.93 34.56 541.38 34.56C542.52 34.56 548.26 34.56 558.57 34.56M541.38 33.75C540.48 33.75 539.76 34.47 539.76 35.37C539.76 37.12 539.76 51.17 539.76 52.92C539.76 53.82 540.48 54.54 541.38 54.54C543.1 54.54 556.85 54.54 558.57 54.54C559.47 54.54 560.19 53.82 560.19 52.92C560.19 51.17 560.19 37.12 560.19 35.37C560.19 34.47 559.47 33.75 558.57 33.75C558.57 33.75 543.1 33.75 541.38 33.75Z" id="b1dn511CZw"></path><path d="M544.42 39.17C544.19 39.17 544.01 38.99 544.01 38.77C544.01 38.55 544.19 38.36 544.41 38.36C544.41 38.36 544.42 38.36 544.42 38.36C545.57 38.36 554.74 38.36 555.89 38.36C556.11 38.36 556.29 38.55 556.29 38.77C556.29 38.99 556.11 39.17 555.89 39.17C553.6 39.17 545.57 39.17 544.42 39.17Z" id="cx6IBqONr"></path><path d="M544.42 42.04C544.19 42.04 544.01 41.86 544.01 41.64C544.01 41.41 544.19 41.23 544.42 41.23C545.57 41.23 554.74 41.23 555.89 41.23C556.11 41.23 556.29 41.41 556.29 41.64C556.29 41.86 556.11 42.04 555.89 42.04C555.89 42.04 545.57 42.04 544.42 42.04Z" id="aLIaQiGEN"></path><path d="M544.42 44.91C544.19 44.91 544.01 44.73 544.01 44.51C544.01 44.28 544.19 44.1 544.41 44.1C544.42 44.1 544.42 44.1 544.42 44.1C545.57 44.1 554.74 44.1 555.89 44.1C556.11 44.1 556.29 44.28 556.29 44.51C556.29 44.73 556.11 44.91 555.89 44.91C553.6 44.91 545.57 44.91 544.42 44.91Z" id="b1unjcutHh"></path><path d="M544.42 47.78C544.19 47.78 544.01 47.6 544.01 47.37C544.01 47.15 544.19 46.97 544.41 46.97C544.41 46.97 544.42 46.97 544.42 46.97C545.57 46.97 554.74 46.97 555.89 46.97C556.11 46.97 556.29 47.15 556.29 47.37C556.29 47.6 556.11 47.78 555.89 47.78C553.6 47.78 545.57 47.78 544.42 47.78Z" id="b1szcihXqG"></path><path d="M544.42 50.64C544.19 50.65 544.01 50.47 544.01 50.24C544.01 50.02 544.19 49.84 544.41 49.83C544.41 49.83 544.42 49.83 544.42 49.83C545.57 49.83 554.74 49.83 555.89 49.83C556.11 49.84 556.29 50.02 556.29 50.24C556.29 50.46 556.11 50.64 555.89 50.64C553.6 50.64 545.57 50.64 544.42 50.64Z" id="eU3XwNlX9"></path><path d="M453.35 20.79C452.36 20.79 451.55 19.99 451.55 18.99C451.55 17.73 451.55 7.63 451.55 6.37C451.55 5.37 452.36 4.57 453.35 4.57C455.11 4.57 469.23 4.57 470.99 4.57C471.99 4.57 472.79 5.37 472.79 6.37C472.79 7.63 472.79 17.73 472.79 18.99C472.79 19.99 471.99 20.79 470.99 20.79C467.47 20.79 455.11 20.79 453.35 20.79ZM453.35 5.38C452.8 5.38 452.36 5.82 452.36 6.37C452.36 7.63 452.36 17.73 452.36 18.99C452.36 19.54 452.8 19.98 453.35 19.98C455.11 19.98 469.23 19.98 470.99 19.98C471.54 19.98 471.98 19.54 471.98 18.99C471.98 17.73 471.98 7.63 471.98 6.37C471.98 5.82 471.54 5.38 470.99 5.38C467.47 5.38 456.88 5.38 453.35 5.38Z" id="c5W4o6luoR"></path><path d="M456.44 10.22C456.21 10.22 456.03 10.03 456.03 9.81C456.04 9.59 456.22 9.41 456.44 9.41C457.58 9.41 466.76 9.41 467.91 9.41C468.13 9.41 468.31 9.59 468.32 9.81C468.32 10.03 468.14 10.22 467.91 10.22C467.91 10.22 467.91 10.22 467.91 10.22C465.61 10.22 457.58 10.22 456.44 10.22Z" id="a1suuddgix"></path><path d="M456.44 13.08C456.21 13.08 456.03 12.9 456.03 12.68C456.04 12.46 456.22 12.28 456.44 12.27C457.58 12.27 466.76 12.27 467.91 12.27C468.13 12.27 468.31 12.45 468.32 12.68C468.32 12.9 468.14 13.08 467.91 13.08C467.91 13.08 467.91 13.08 467.91 13.08C465.61 13.08 457.58 13.08 456.44 13.08Z" id="bQOPDW0pD"></path><path d="M456.44 15.95C456.21 15.95 456.03 15.77 456.03 15.55C456.04 15.32 456.22 15.14 456.44 15.14C457.58 15.14 466.76 15.14 467.91 15.14C468.13 15.14 468.31 15.32 468.32 15.55C468.32 15.77 468.14 15.95 467.91 15.95C467.91 15.95 467.91 15.95 467.91 15.95C465.61 15.95 457.58 15.95 456.44 15.95Z" id="dwvuTFf1"></path><path d="M512.59 22.87C511.64 22.6 511.09 21.6 511.37 20.64C511.72 19.43 514.53 9.73 514.88 8.52C515.16 7.56 516.16 7.02 517.11 7.29C518.81 7.78 532.37 11.71 534.06 12.21C535.01 12.48 535.56 13.48 535.29 14.44C534.94 15.65 532.12 25.35 531.77 26.56C531.49 27.52 530.5 28.06 529.54 27.79C526.15 26.81 514.29 23.37 512.59 22.87ZM516.89 8.07C516.36 7.92 515.81 8.22 515.66 8.74C515.31 9.96 512.5 19.66 512.15 20.87C511.99 21.39 512.3 21.94 512.82 22.1C514.52 22.59 528.07 26.52 529.77 27.01C530.29 27.16 530.84 26.86 530.99 26.34C531.34 25.12 534.16 15.42 534.51 14.21C534.66 13.68 534.36 13.14 533.83 12.98C530.45 12 520.28 9.05 516.89 8.07Z" id="cnNcqKfF4"></path><path d="M518.5 13.58C518.29 13.51 518.17 13.29 518.23 13.07C518.29 12.86 518.52 12.74 518.73 12.8C519.83 13.12 528.65 15.67 529.75 15.99C529.96 16.06 530.09 16.28 530.02 16.5C529.96 16.71 529.74 16.83 529.52 16.77C529.52 16.77 529.52 16.77 529.52 16.77C529.52 16.77 519.61 13.9 518.5 13.58Z" id="c3PZ0wqyX3"></path><path d="M517.71 16.33C517.49 16.27 517.37 16.04 517.43 15.83C517.49 15.61 517.72 15.49 517.93 15.55C519.03 15.87 527.85 18.43 528.95 18.75C529.16 18.81 529.29 19.04 529.22 19.25C529.16 19.46 528.94 19.59 528.72 19.53C528.72 19.53 518.81 16.65 517.71 16.33Z" id="cxTRHsIbJ"></path><path d="M516.91 19.09C516.69 19.02 516.57 18.8 516.63 18.58C516.69 18.37 516.92 18.25 517.13 18.31C518.23 18.63 527.05 21.18 528.15 21.5C528.37 21.57 528.49 21.79 528.43 22C528.36 22.22 528.14 22.34 527.92 22.28C527.92 22.28 518.01 19.41 516.91 19.09Z" id="a11y8O5iti"></path><path d="M640 154.47C640 154.47 640 154.47 640 154.47C640 154.93 640 155.18 640 155.23C640 155.23 640 155.23 640 155.23C533.36 155.23 474.12 155.23 462.27 155.23C462.27 155.23 462.27 155.23 462.27 155.23C462.27 154.77 462.27 154.52 462.27 154.47C462.27 154.47 462.27 154.47 462.27 154.47C568.91 154.47 628.15 154.47 640 154.47Z" id="c7qP1XPS0n"></path><path d="M536.56 153.28L537.54 140.54L564.48 140.54L565.46 153.28L565.46 153.28L536.56 153.28Z" id="c7ulgDbW9V"></path><path d="M567.42 151.81C567.42 151.81 567.42 151.81 567.42 151.81C567.42 153.57 567.42 154.55 567.42 154.75C567.42 154.75 567.42 154.75 567.42 154.75C548.02 154.75 537.25 154.75 535.09 154.75C535.09 154.75 535.09 154.75 535.09 154.75C535.09 152.98 535.09 152 535.09 151.81C535.09 151.81 535.09 151.81 535.09 151.81C554.49 151.81 565.27 151.81 567.42 151.81Z" id="c1NEVNop7K"></path><path d="M495.9 58.49C494.28 58.49 492.96 59.8 492.96 61.43C492.96 61.43 492.96 61.43 492.96 61.43L492.96 128.78L609.31 128.78C609.31 88.37 609.31 65.92 609.31 61.43C609.31 59.8 607.99 58.49 606.37 58.49C606.37 58.49 606.37 58.49 606.37 58.49C606.37 58.49 506.95 58.49 495.9 58.49Z" id="b3KcwzEka1"></path><path d="M492.96 128.78C492.96 135.4 492.96 139.07 492.96 139.8C492.96 141.43 494.28 142.74 495.9 142.74C495.9 142.74 495.9 142.74 495.9 142.74C506.95 142.74 595.32 142.74 606.37 142.74C607.99 142.74 609.31 141.43 609.31 139.8C609.31 139.8 609.31 139.8 609.31 139.8L609.31 128.78L492.96 128.78Z" id="hvwKXws17"></path><path d="M603.67 64.61C603.67 64.61 603.67 64.61 603.67 64.61C603.67 99.88 603.67 119.48 603.67 123.39C603.67 123.39 603.67 123.39 603.67 123.39C540.77 123.39 505.83 123.39 498.84 123.39C498.84 123.39 498.84 123.39 498.84 123.39C498.84 88.12 498.84 68.53 498.84 64.61C498.84 64.61 498.84 64.61 498.84 64.61C561.74 64.61 596.68 64.61 603.67 64.61Z" id="cqOmtGgTN"></path><path d="M551.26 132.7C549.63 132.7 548.32 134.02 548.32 135.64C548.32 137.26 549.63 138.58 551.26 138.58C552.88 138.58 554.2 137.26 554.2 135.64C554.2 134.02 552.88 132.7 551.26 132.7Z" id="c4pf4MRhn7"></path><path d="M502.11 65.98C501.8 65.98 501.55 66.23 501.55 66.54C501.55 66.84 501.8 67.09 502.11 67.09C502.42 67.09 502.67 66.84 502.67 66.54C502.67 66.23 502.42 65.98 502.11 65.98Z" id="c1BppW3Zn"></path><path d="M504.23 65.98C503.92 65.98 503.67 66.23 503.67 66.54C503.67 66.84 503.92 67.09 504.23 67.09C504.54 67.09 504.78 66.84 504.78 66.54C504.78 66.23 504.54 65.98 504.23 65.98Z" id="cGcGbPqv"></path><path d="M506.34 65.98C506.04 65.98 505.79 66.23 505.79 66.54C505.79 66.84 506.04 67.09 506.34 67.09C506.65 67.09 506.9 66.84 506.9 66.54C506.9 66.23 506.65 65.98 506.34 65.98Z" id="dgU1oV7Yx"></path><path d="M600.65 68.43C600.65 68.43 600.65 68.43 600.65 68.43C600.65 98.05 600.65 114.51 600.65 117.8C600.65 117.8 600.65 117.8 600.65 117.8C541.19 117.8 508.16 117.8 501.55 117.8C501.55 117.8 501.55 117.8 501.55 117.8C501.55 88.18 501.55 71.72 501.55 68.43C501.55 68.43 501.55 68.43 501.55 68.43C561.01 68.43 594.04 68.43 600.65 68.43Z" id="dXT2IWDb8"></path><path d="M508.14 75.94C507.95 75.94 507.79 76.1 507.79 76.29C507.79 78.06 507.79 92.23 507.79 94C507.79 94.19 507.95 94.35 508.14 94.35C510.18 94.35 526.54 94.35 528.59 94.35C528.78 94.35 528.94 94.19 528.94 94C528.94 92.23 528.94 78.06 528.94 76.29C528.94 76.1 528.78 75.94 528.59 75.94C524.5 75.94 512.23 75.94 508.14 75.94Z" id="chvuSO0VS"></path><path d="M540.98 76C540.78 76 540.62 76.15 540.62 76.35C540.62 78.11 540.62 92.23 540.62 94C540.62 94.19 540.78 94.35 540.98 94.35C543.01 94.35 559.32 94.35 561.36 94.35C561.55 94.35 561.71 94.19 561.71 94C561.71 92.23 561.71 78.11 561.71 76.35C561.71 76.15 561.55 76 561.36 76C557.28 76 545.05 76 540.98 76Z" id="a78F3oCfRH"></path><path d="M573.47 75.81C573.27 75.81 573.12 75.97 573.12 76.16C573.12 77.95 573.12 92.22 573.12 94C573.12 94.19 573.27 94.35 573.47 94.35C575.53 94.35 592 94.35 594.06 94.35C594.26 94.35 594.41 94.19 594.41 94C594.41 92.22 594.41 77.95 594.41 76.16C594.41 75.97 594.26 75.81 594.06 75.81C589.94 75.81 577.59 75.81 573.47 75.81Z" id="c1MqUTIDGK"></path><path d="M508.51 103.11C508.11 103.12 507.79 103.44 507.79 103.84C507.79 104.24 508.11 104.56 508.51 104.56C510.44 104.56 525.82 104.56 527.74 104.56C528.14 104.56 528.46 104.24 528.46 103.84C528.46 103.44 528.14 103.12 527.74 103.11C523.9 103.11 512.36 103.11 508.51 103.11Z" id="bl83KNET3"></path><path d="M508.51 106.56C508.11 106.56 507.79 106.89 507.79 107.29C507.79 107.68 508.11 108.01 508.51 108.01C509.38 108.01 516.3 108.01 517.17 108.01C517.57 108.01 517.89 107.68 517.89 107.28C517.89 106.88 517.57 106.56 517.17 106.56C515.44 106.56 510.24 106.56 508.51 106.56Z" id="g2EwRgyvwT"></path><path d="M541.7 103.11C541.3 103.12 540.98 103.44 540.98 103.84C540.98 104.24 541.3 104.56 541.7 104.56C543.62 104.56 559.01 104.56 560.93 104.56C561.33 104.56 561.65 104.24 561.65 103.84C561.65 103.44 561.33 103.12 560.93 103.11C557.08 103.11 545.55 103.11 541.7 103.11Z" id="bVCU3isxT"></path><path d="M541.7 106.56C541.3 106.56 540.98 106.89 540.98 107.29C540.98 107.68 541.3 108.01 541.7 108.01C542.57 108.01 549.49 108.01 550.36 108.01C550.76 108.01 551.08 107.68 551.08 107.28C551.08 106.88 550.76 106.56 550.36 106.56C548.63 106.56 543.43 106.56 541.7 106.56Z" id="a16ShpUnmw"></path><path d="M574.06 103.11C573.66 103.12 573.34 103.44 573.34 103.84C573.34 104.24 573.66 104.56 574.06 104.56C575.98 104.56 591.36 104.56 593.29 104.56C593.69 104.56 594.01 104.24 594.01 103.84C594.01 103.44 593.69 103.12 593.29 103.11C589.44 103.11 577.91 103.11 574.06 103.11Z" id="aFVnR7eY"></path><path d="M508.51 99.56C508.11 99.56 507.79 99.88 507.79 100.28C507.79 100.68 508.11 101 508.51 101.01C510.44 101.01 525.82 101.01 527.74 101.01C528.14 101 528.46 100.68 528.46 100.28C528.46 99.88 528.14 99.56 527.74 99.56C523.9 99.56 512.36 99.56 508.51 99.56Z" id="b2MnTTTSyc"></path><path d="M541.7 99.56C541.3 99.56 540.98 99.88 540.98 100.28C540.98 100.68 541.3 101 541.7 101.01C543.62 101.01 559.01 101.01 560.93 101.01C561.33 101 561.65 100.68 561.65 100.28C561.65 99.88 561.33 99.56 560.93 99.56C557.08 99.56 545.55 99.56 541.7 99.56Z" id="b3rb0oV66q"></path><path d="M574.06 99.56C573.66 99.56 573.34 99.88 573.34 100.28C573.34 100.68 573.66 101 574.06 101.01C575.98 101.01 591.36 101.01 593.29 101.01C593.69 101 594.01 100.68 594.01 100.28C594.01 99.88 593.69 99.56 593.29 99.56C589.44 99.56 577.91 99.56 574.06 99.56Z" id="fOg0qtFu"></path><path d="M574.06 106.56C573.66 106.56 573.34 106.89 573.34 107.29C573.34 107.68 573.66 108.01 574.06 108.01C574.93 108.01 581.85 108.01 582.72 108.01C583.12 108.01 583.44 107.68 583.44 107.28C583.44 106.88 583.12 106.56 582.72 106.56C580.99 106.56 575.79 106.56 574.06 106.56Z" id="a1or1CkcJM"></path></defs><g><g><g><use xlink:href="#aSrUAxXRA" opacity="0" fill="#3e9c5a" fill-opacity="1"></use><g><use xlink:href="#aSrUAxXRA" opacity="0" fill-opacity="0" stroke="#000000" stroke-width="1" stroke-opacity="0"></use></g></g><g><use xlink:href="#c2c974yevz" opacity="0" fill="#4db4ea" fill-opacity="1"></use></g><g><use xlink:href="#a451gd9b6b" opacity="1" fill="#e6e6e6" fill-opacity="1"></use><g><use xlink:href="#a451gd9b6b" opacity="1" fill-opacity="0" stroke="#000000" stroke-width="1" stroke-opacity="0"></use></g></g><g><use xlink:href="#dZ5dOND3W" opacity="1" fill="#e6e6e6" fill-opacity="1"></use><g><use xlink:href="#dZ5dOND3W" opacity="1" fill-opacity="0" stroke="#000000" stroke-width="1" stroke-opacity="0"></use></g></g><g><use xlink:href="#a3j63Gb5ua" opacity="1" fill="#e6e6e6" fill-opacity="1"></use><g><use xlink:href="#a3j63Gb5ua" opacity="1" fill-opacity="0" stroke="#000000" stroke-width="1" stroke-opacity="0"></use></g></g><g><use xlink:href="#cDtiiYMLQ" opacity="1" fill="#e6e6e6" fill-opacity="1"></use><g><use xlink:href="#cDtiiYMLQ" opacity="1" fill-opacity="0" stroke="#000000" stroke-width="1" stroke-opacity="0"></use></g></g><g><use xlink:href="#bSCXQZ3r" opacity="1" fill="#e6e6e6" fill-opacity="1"></use><g><use xlink:href="#bSCXQZ3r" opacity="1" fill-opacity="0" stroke="#000000" stroke-width="1" stroke-opacity="0"></use></g></g><g><use xlink:href="#d45ZnexVdk" opacity="1" fill="#e6e6e6" fill-opacity="1"></use><g><use xlink:href="#d45ZnexVdk" opacity="1" fill-opacity="0" stroke="#000000" stroke-width="1" stroke-opacity="0"></use></g></g><g><use xlink:href="#baMQ18at8" opacity="1" fill="#e6e6e6" fill-opacity="1"></use><g><use xlink:href="#baMQ18at8" opacity="1" fill-opacity="0" stroke="#000000" stroke-width="1" stroke-opacity="0"></use></g></g><g><use xlink:href="#ccid3LyZq" opacity="1" fill="#e6e6e6" fill-opacity="1"></use><g><use xlink:href="#ccid3LyZq" opacity="1" fill-opacity="0" stroke="#000000" stroke-width="1" stroke-opacity="0"></use></g></g><g><use xlink:href="#i5DjVmt2Dm" opacity="1" fill="#e6e6e6" fill-opacity="1"></use><g><use xlink:href="#i5DjVmt2Dm" opacity="1" fill-opacity="0" stroke="#000000" stroke-width="1" stroke-opacity="0"></use></g></g><g><use xlink:href="#c1W6iCa1SJ" opacity="1" fill="#6c63ff" fill-opacity="1"></use><g><use xlink:href="#c1W6iCa1SJ" opacity="1" fill-opacity="0" stroke="#000000" stroke-width="1" stroke-opacity="0"></use></g></g><g><use xlink:href="#c3rKcceLm" opacity="1" fill="#6c63ff" fill-opacity="1"></use><g><use xlink:href="#c3rKcceLm" opacity="1" fill-opacity="0" stroke="#000000" stroke-width="1" stroke-opacity="0"></use></g></g><g><use xlink:href="#a16gI1vqZx" opacity="1" fill="#6c63ff" fill-opacity="1"></use><g><use xlink:href="#a16gI1vqZx" opacity="1" fill-opacity="0" stroke="#000000" stroke-width="1" stroke-opacity="0"></use></g></g><g><use xlink:href="#dj17gZ72Q" opacity="1" fill="#6c63ff" fill-opacity="1"></use><g><use xlink:href="#dj17gZ72Q" opacity="1" fill-opacity="0" stroke="#000000" stroke-width="1" stroke-opacity="0"></use></g></g><g><use xlink:href="#e2X6kzxbHZ" opacity="1" fill="#6c63ff" fill-opacity="1"></use><g><use xlink:href="#e2X6kzxbHZ" opacity="1" fill-opacity="0" stroke="#000000" stroke-width="1" stroke-opacity="0"></use></g></g><g><use xlink:href="#a1BaYDn6Ul" opacity="1" fill="#e6e6e6" fill-opacity="1"></use><g><use xlink:href="#a1BaYDn6Ul" opacity="1" fill-opacity="0" stroke="#000000" stroke-width="1" stroke-opacity="0"></use></g></g><g><use xlink:href="#a2ue3FKfxN" opacity="1" fill="#6c63ff" fill-opacity="1"></use><g><use xlink:href="#a2ue3FKfxN" opacity="1" fill-opacity="0" stroke="#000000" stroke-width="1" stroke-opacity="0"></use></g></g><g><use xlink:href="#a33Qq8U0V6" opacity="1" fill="#6c63ff" fill-opacity="1"></use><g><use xlink:href="#a33Qq8U0V6" opacity="1" fill-opacity="0" stroke="#000000" stroke-width="1" stroke-opacity="0"></use></g></g><g><use xlink:href="#e1EIMmMrnp" opacity="1" fill="#6c63ff" fill-opacity="1"></use><g><use xlink:href="#e1EIMmMrnp" opacity="1" fill-opacity="0" stroke="#000000" stroke-width="1" stroke-opacity="0"></use></g></g><g><use xlink:href="#b1rB1Ktice" opacity="1" fill="#6c63ff" fill-opacity="1"></use><g><use xlink:href="#b1rB1Ktice" opacity="1" fill-opacity="0" stroke="#000000" stroke-width="1" stroke-opacity="0"></use></g></g><g><use xlink:href="#ak7pDhnF9" opacity="1" fill="#6c63ff" fill-opacity="1"></use><g><use xlink:href="#ak7pDhnF9" opacity="1" fill-opacity="0" stroke="#000000" stroke-width="1" stroke-opacity="0"></use></g></g><g><use xlink:href="#b1dn511CZw" opacity="1" fill="#6c63ff" fill-opacity="1"></use><g><use xlink:href="#b1dn511CZw" opacity="1" fill-opacity="0" stroke="#000000" stroke-width="1" stroke-opacity="0"></use></g></g><g><use xlink:href="#cx6IBqONr" opacity="1" fill="#6c63ff" fill-opacity="1"></use><g><use xlink:href="#cx6IBqONr" opacity="1" fill-opacity="0" stroke="#000000" stroke-width="1" stroke-opacity="0"></use></g></g><g><use xlink:href="#aLIaQiGEN" opacity="1" fill="#6c63ff" fill-opacity="1"></use><g><use xlink:href="#aLIaQiGEN" opacity="1" fill-opacity="0" stroke="#000000" stroke-width="1" stroke-opacity="0"></use></g></g><g><use xlink:href="#b1unjcutHh" opacity="1" fill="#6c63ff" fill-opacity="1"></use><g><use xlink:href="#b1unjcutHh" opacity="1" fill-opacity="0" stroke="#000000" stroke-width="1" stroke-opacity="0"></use></g></g><g><use xlink:href="#b1szcihXqG" opacity="1" fill="#6c63ff" fill-opacity="1"></use><g><use xlink:href="#b1szcihXqG" opacity="1" fill-opacity="0" stroke="#000000" stroke-width="1" stroke-opacity="0"></use></g></g><g><use xlink:href="#eU3XwNlX9" opacity="1" fill="#6c63ff" fill-opacity="1"></use><g><use xlink:href="#eU3XwNlX9" opacity="1" fill-opacity="0" stroke="#000000" stroke-width="1" stroke-opacity="0"></use></g></g><g><use xlink:href="#c5W4o6luoR" opacity="1" fill="#e6e6e6" fill-opacity="1"></use><g><use xlink:href="#c5W4o6luoR" opacity="1" fill-opacity="0" stroke="#000000" stroke-width="1" stroke-opacity="0"></use></g></g><g><use xlink:href="#a1suuddgix" opacity="1" fill="#6c63ff" fill-opacity="1"></use><g><use xlink:href="#a1suuddgix" opacity="1" fill-opacity="0" stroke="#000000" stroke-width="1" stroke-opacity="0"></use></g></g><g><use xlink:href="#bQOPDW0pD" opacity="1" fill="#6c63ff" fill-opacity="1"></use><g><use xlink:href="#bQOPDW0pD" opacity="1" fill-opacity="0" stroke="#000000" stroke-width="1" stroke-opacity="0"></use></g></g><g><use xlink:href="#dwvuTFf1" opacity="1" fill="#6c63ff" fill-opacity="1"></use><g><use xlink:href="#dwvuTFf1" opacity="1" fill-opacity="0" stroke="#000000" stroke-width="1" stroke-opacity="0"></use></g></g><g><use xlink:href="#cnNcqKfF4" opacity="1" fill="#e6e6e6" fill-opacity="1"></use><g><use xlink:href="#cnNcqKfF4" opacity="1" fill-opacity="0" stroke="#000000" stroke-width="1" stroke-opacity="0"></use></g></g><g><use xlink:href="#c3PZ0wqyX3" opacity="1" fill="#6c63ff" fill-opacity="1"></use><g><use xlink:href="#c3PZ0wqyX3" opacity="1" fill-opacity="0" stroke="#000000" stroke-width="1" stroke-opacity="0"></use></g></g><g><use xlink:href="#cxTRHsIbJ" opacity="1" fill="#6c63ff" fill-opacity="1"></use><g><use xlink:href="#cxTRHsIbJ" opacity="1" fill-opacity="0" stroke="#000000" stroke-width="1" stroke-opacity="0"></use></g></g><g><use xlink:href="#a11y8O5iti" opacity="1" fill="#6c63ff" fill-opacity="1"></use><g><use xlink:href="#a11y8O5iti" opacity="1" fill-opacity="0" stroke="#000000" stroke-width="1" stroke-opacity="0"></use></g></g><g><use xlink:href="#c7qP1XPS0n" opacity="1" fill="#e6e6e6" fill-opacity="1"></use><g><use xlink:href="#c7qP1XPS0n" opacity="1" fill-opacity="0" stroke="#000000" stroke-width="1" stroke-opacity="0"></use></g></g><g><use xlink:href="#c7ulgDbW9V" opacity="1" fill="#e6e6e6" fill-opacity="1"></use><g><use xlink:href="#c7ulgDbW9V" opacity="1" fill-opacity="0" stroke="#000000" stroke-width="1" stroke-opacity="0"></use></g></g><g><use xlink:href="#c1NEVNop7K" opacity="1" fill="#e6e6e6" fill-opacity="1"></use><g><use xlink:href="#c1NEVNop7K" opacity="1" fill-opacity="0" stroke="#000000" stroke-width="1" stroke-opacity="0"></use></g></g><g><use xlink:href="#b3KcwzEka1" opacity="1" fill="#3f3d56" fill-opacity="1"></use><g><use xlink:href="#b3KcwzEka1" opacity="1" fill-opacity="0" stroke="#000000" stroke-width="1" stroke-opacity="0"></use></g></g><g><use xlink:href="#hvwKXws17" opacity="1" fill="#e6e6e6" fill-opacity="1"></use><g><use xlink:href="#hvwKXws17" opacity="1" fill-opacity="0" stroke="#000000" stroke-width="1" stroke-opacity="0"></use></g></g><g><use xlink:href="#cqOmtGgTN" opacity="1" fill="#e6e6e6" fill-opacity="1"></use><g><use xlink:href="#cqOmtGgTN" opacity="1" fill-opacity="0" stroke="#000000" stroke-width="1" stroke-opacity="0"></use></g></g><g><use xlink:href="#c4pf4MRhn7" opacity="1" fill="#3f3d56" fill-opacity="1"></use><g><use xlink:href="#c4pf4MRhn7" opacity="1" fill-opacity="0" stroke="#000000" stroke-width="1" stroke-opacity="0"></use></g></g><g><use xlink:href="#c1BppW3Zn" opacity="1" fill="#ffffff" fill-opacity="1"></use><g><use xlink:href="#c1BppW3Zn" opacity="1" fill-opacity="0" stroke="#000000" stroke-width="1" stroke-opacity="0"></use></g></g><g><use xlink:href="#cGcGbPqv" opacity="1" fill="#ffffff" fill-opacity="1"></use><g><use xlink:href="#cGcGbPqv" opacity="1" fill-opacity="0" stroke="#000000" stroke-width="1" stroke-opacity="0"></use></g></g><g><use xlink:href="#dgU1oV7Yx" opacity="1" fill="#ffffff" fill-opacity="1"></use><g><use xlink:href="#dgU1oV7Yx" opacity="1" fill-opacity="0" stroke="#000000" stroke-width="1" stroke-opacity="0"></use></g></g><g><use xlink:href="#dXT2IWDb8" opacity="1" fill="#ffffff" fill-opacity="1"></use><g><use xlink:href="#dXT2IWDb8" opacity="1" fill-opacity="0" stroke="#000000" stroke-width="1" stroke-opacity="0"></use></g></g><g><use xlink:href="#chvuSO0VS" opacity="1" fill="#e6e6e6" fill-opacity="1"></use><g><use xlink:href="#chvuSO0VS" opacity="1" fill-opacity="0" stroke="#000000" stroke-width="1" stroke-opacity="0"></use></g></g><g><use xlink:href="#a78F3oCfRH" opacity="1" fill="#e6e6e6" fill-opacity="1"></use><g><use xlink:href="#a78F3oCfRH" opacity="1" fill-opacity="0" stroke="#000000" stroke-width="1" stroke-opacity="0"></use></g></g><g><use xlink:href="#c1MqUTIDGK" opacity="1" fill="#e6e6e6" fill-opacity="1"></use><g><use xlink:href="#c1MqUTIDGK" opacity="1" fill-opacity="0" stroke="#000000" stroke-width="1" stroke-opacity="0"></use></g></g><g><use xlink:href="#bl83KNET3" opacity="1" fill="#e6e6e6" fill-opacity="1"></use><g><use xlink:href="#bl83KNET3" opacity="1" fill-opacity="0" stroke="#000000" stroke-width="1" stroke-opacity="0"></use></g></g><g><use xlink:href="#g2EwRgyvwT" opacity="1" fill="#6c63ff" fill-opacity="1"></use><g><use xlink:href="#g2EwRgyvwT" opacity="1" fill-opacity="0" stroke="#000000" stroke-width="1" stroke-opacity="0"></use></g></g><g><use xlink:href="#bVCU3isxT" opacity="1" fill="#e6e6e6" fill-opacity="1"></use><g><use xlink:href="#bVCU3isxT" opacity="1" fill-opacity="0" stroke="#000000" stroke-width="1" stroke-opacity="0"></use></g></g><g><use xlink:href="#a16ShpUnmw" opacity="1" fill="#6c63ff" fill-opacity="1"></use><g><use xlink:href="#a16ShpUnmw" opacity="1" fill-opacity="0" stroke="#000000" stroke-width="1" stroke-opacity="0"></use></g></g><g><use xlink:href="#aFVnR7eY" opacity="1" fill="#e6e6e6" fill-opacity="1"></use><g><use xlink:href="#aFVnR7eY" opacity="1" fill-opacity="0" stroke="#000000" stroke-width="1" stroke-opacity="0"></use></g></g><g><use xlink:href="#b2MnTTTSyc" opacity="1" fill="#e6e6e6" fill-opacity="1"></use><g><use xlink:href="#b2MnTTTSyc" opacity="1" fill-opacity="0" stroke="#000000" stroke-width="1" stroke-opacity="0"></use></g></g><g><use xlink:href="#b3rb0oV66q" opacity="1" fill="#e6e6e6" fill-opacity="1"></use><g><use xlink:href="#b3rb0oV66q" opacity="1" fill-opacity="0" stroke="#000000" stroke-width="1" stroke-opacity="0"></use></g></g><g><use xlink:href="#fOg0qtFu" opacity="1" fill="#e6e6e6" fill-opacity="1"></use><g><use xlink:href="#fOg0qtFu" opacity="1" fill-opacity="0" stroke="#000000" stroke-width="1" stroke-opacity="0"></use></g></g><g><use xlink:href="#a1or1CkcJM" opacity="1" fill="#6c63ff" fill-opacity="1"></use><g><use xlink:href="#a1or1CkcJM" opacity="1" fill-opacity="0" stroke="#000000" stroke-width="1" stroke-opacity="0"></use></g></g></g></g></svg>